<?xml version="1.0" encoding="utf-8"?>
<!-- Generator: Adobe Illustrator 22.1.0, SVG Export Plug-In . SVG Version: 6.00 Build 0)  -->
<svg version="1.1" id="Layer_1" xmlns="http://www.w3.org/2000/svg" xmlns:xlink="http://www.w3.org/1999/xlink" x="0px" y="0px"
	 viewBox="0 0 576 720" style="enable-background:new 0 0 576 720;" xml:space="preserve">
<style type="text/css">
	.st0{fill:#1D5643;}
</style>
<g id="box">
	<g id="bottom_box_line">
		<path d="M327.4,387.8C327.4,387.8,327.5,387.8,327.4,387.8L327.4,387.8z"/>
		<path d="M258.2,388.2C258.2,388.2,258.2,388.2,258.2,388.2c-0.1,0.1-0.2,0.1-0.2,0.1L258.2,388.2z"/>
		<path d="M247.1,387.9C247.1,387.9,247.1,387.9,247.1,387.9C247,387.9,247,387.9,247.1,387.9z"/>
		<path d="M283.8,387.7c0.1,0,0.1,0,0.2,0C284,387.7,283.9,387.7,283.8,387.7z"/>
		<path d="M347.7,387.6C347.7,387.6,347.7,387.6,347.7,387.6C347.7,387.6,347.8,387.6,347.7,387.6L347.7,387.6z"/>
		<path d="M347.5,387.7c-0.2,0,0.1-0.1,0.2-0.1c-0.3-0.1-0.5-0.1-0.8,0C346.9,387.6,347.4,387.6,347.5,387.7z"/>
		<path d="M384.7,387.4l-0.1,0C384.6,387.4,384.7,387.4,384.7,387.4z"/>
		<path d="M282.7,383.9c0.1,0,0.1,0,0.2,0C282.8,383.9,282.8,383.9,282.7,383.9z"/>
		<path d="M378.9,387.3l-0.1,0.1C378.9,387.3,378.9,387.3,378.9,387.3z"/>
		<path d="M258,388.3L258,388.3C258,388.4,258,388.3,258,388.3z"/>
		<path d="M236.8,387.8C236.8,387.8,236.8,387.7,236.8,387.8C236.8,387.7,236.7,387.7,236.8,387.8L236.8,387.8z"/>
		<path d="M222.7,387.3C222.7,387.3,222.7,387.3,222.7,387.3c0.2,0.1,0.8,0.1,1.6,0.1l0-0.2L222.7,387.3z"/>
		<path d="M389,386.2l-1.2-1.3l-3.7-1l-10.1,0.2l-8.1-0.4l-19.6,0.1l-1.4,0.3c-3.9-0.5-8.8,0.1-13-0.3l-0.1,0.2
			c-1.2,0-1.1-0.1-1.4-0.2c-10.9,0.1-22.1,0.4-31.9,0.1c-0.9-0.2-3.8-0.1-4.6-0.2c-3.2,0.3-6.6,0.3-9.8,0.3l0.1,0l-1.5,0
			c-0.1,0-0.1,0,0-0.1c-1.7,0.2-4.4,0-6.4-0.1l0.1,0c-12.1,0-23.3,0.4-35.4,0.1c-5.6-0.4-12.1,0.2-18.5-0.2
			c-1.2-0.2-14.1-0.1-15.3,0.1l1.5,0.3c-4.8,0.1-7.1-0.2-11.2,0.1l0.2-0.1c-0.6-0.1-0.9,0.6-7.6-0.2v0c-0.2,0-0.2,0.1-0.7,0l1.1,0.2
			c-0.7,0.1-1.3,0.2-2.2,0.2c-0.2,0-0.3-0.1-0.3-0.1l-2.2,0.1l-0.7-0.2c-0.7,0.1-0.4,0.5-2.2,0.3c0.2,0.1,0.2,0.1,0.1,0.2
			c0.1,0.2,0.1,0.4,0.2,0.6c0.1,0.2,0.2,0.3,0.3,0.5c0.5,0.1,1,0.2,1.4,0.4c0,0,0,0,0.1,0c0,0,0,0,0-0.1l-0.1,0c0,0,0-0.1,0-0.1
			c0,0,0-0.1,0.3-0.1l0,0c0.4,0,1,0,1.3,0l0,0.2c0.7-0.3,4.6,0.4,5.5,0.4c0.9,0.2,2.1,0,3.2,0c1.8,0,0.9,0.2,1.8,0.4
			c1.2,0.1-0.2-0.2,0.2-0.2l1.4,0.2c-0.8,0-0.4,0.1-0.2,0.2c1.2,0,3.1,0.3,3.4,0c1.6,0.1,1.6,0.3,2.3,0.3c-0.2-0.1-0.7-0.1-0.7-0.2
			c0.6,0.1,0.3,0,0-0.1c1-0.1,5.1,0.5,5.3,0.2v0.1c0.2-0.2-0.1-0.5,0.5-0.6l0.5,0.1l0.7-0.1c0.5,0.1,0.2,0.1,0.2,0.2
			c1.1-0.1,2.7,0,4,0.1l-1.4-0.7c1.1,0.2,3.2,0.5,3.4,0.3l0.7,0.2c2.3,0.4,1.6-0.2,2.5-0.1l1.2,0.2l-1.1,0c1.1,0.1,1.6,0.2,2.5,0.4
			c0,0,0,0,0,0c-0.1,0-0.1,0-0.1,0l0.2,0c0.1-0.1,0.7-0.2,1.5-0.2c1.1,0,2-0.1,3.9,0.1l0.5-0.3l1.4,0.1v0.2c-1.4,0-3.9,0.1-5.6,0.1
			l0,0.1c1,0,2.2-0.1,2.9-0.1c0.3,0,1.2,0.2,0.6,0.4l0.6-0.2c3.4,0,3.5,0,7,0.2l-0.3-0.1c0.7-0.1,1.4-0.1,1.6,0
			c2.2,0,4.4,0.2,5.8,0.4l0.3-0.2c0.5,0,1.1,0.4,1.4,0l1-0.1c0.6,0,1-0.1,1.7,0c0,0,0,0,0,0c0,0,0,0,0,0c0,0,0.1,0,0.1,0
			c0,0,0,0,0,0c1.4,0.1,0-0.2,1.6-0.1c0.5,0.2,0.6-0.3,1.4-0.2l0.8,0.3c1.4,0.2,1.7-0.1,3.7-0.1c1,0.1,1.5,0.4,0.8,0.7
			c0.9-0.3,0.4-0.2,1.6-0.4c0.2,0.1,0.1,0.2-0.2,0.3c1.1,0.1,0.7-0.1,1.5-0.1c0.2-0.2,0.5-0.6,0.8-0.6l-0.3-0.1
			c0.8-0.1,1.8-0.2,2.8-0.1l0,0.1l1-0.1l0.1,0.2l1.5,0l-0.2,0c0.4,0,1.5-0.1,2.2,0l0,0.1c1.9,0.3,3.4-0.1,5.6-0.1l-0.3,0.2
			c0.7,0.2,0.2-0.3,1.1-0.2l0,0.2c0.8-0.3,1,0.1,1.5,0.2l-0.3-0.3l1,0.1c1.1,0.1,0.7,0.4,0.5,0.5l0.8-0.2l0.1,0.2
			c0.6-0.3,0.6,0,1.5-0.1c0.1,0.1-0.2,0.1,0.2,0.2l1.6-0.4l-1,0.2l0.1-0.4c1-0.3,1.4,0,2.1-0.1l-0.5,0.1c1.2-0.1,1.2,0.1,1.9,0.1
			c-0.2-0.1-0.5-0.2,0-0.2c0.3,0,0.2,0.1,0.5,0.2c0.1-0.2,0.9-0.4,1.7-0.3c0,0,0,0.1-0.1,0.1c0.2,0,0.3-0.1,0.6,0l-0.2,0.3l0.7-0.3
			c0.4,0.1,1.1-0.1,1,0.1l-0.2,0.1l3.3,0.1l0,0.2c0.3-0.3,1.8,0.1,1.7-0.3c0.6,0.2,2.4-0.1,2.1,0.3c2.2,0,3.3-0.4,6-0.2
			c0.9,0.4,3.5,0.2,5.2,0.3c3.3-0.1,5.4-0.3,8.8-0.4c2,0.5,5.1-0.2,7.2,0.1l0.6-0.2c1.5,0.3,3.7-0.1,5.7,0.2
			c0.5-0.1,0.8-0.1,0.9-0.1c-0.1,0-0.2,0-0.3-0.2c0.6,0.1,1.8,0,1.7,0.2l-0.1,0c-0.1,0.2,1.8-0.1,2.4,0.1l-0.4-0.3l1.1,0l-0.3,0.1
			c4.8-0.6,6.9,0.3,11.4-0.3c-0.6,0.3,0.9-0.2,0.9,0.2c1.1,0.4,2.1-0.1,3-0.2c0,0,0,0,0.1-0.1l1.6,0c-1,0.4,1.2-0.3,0.3,0
			c4.2,0.3,9.8,0,14.7,0.1l-0.2-0.1c1.2,0,2.8-0.1,3.7,0.1c0.9,0.2,2.1-0.3,2.4-0.3c0.9-0.2,1.7,0.1,1.6,0.1
			c1.1-0.1,2.1-0.4,3.6-0.2c0.5,0.3,4.2-0.3,4.2,0l0,0c2,0.3,3.8-0.2,5.9,0.1c0,0,0,0-0.1,0.1L389,386.2z"/>
		<path d="M188.2,384.1L188.2,384.1C188.3,384,188.2,384,188.2,384.1z"/>
		<path d="M215,387C215,387,215,387,215,387l0.2,0.1L215,387z"/>
		<path d="M197.9,387.1c0.8,0,0.8,0,0.7,0C198.3,387,198,387,197.9,387.1z"/>
	</g>
	<g id="left_box_line">
		<path d="M181.7,322.5C181.7,322.6,181.7,322.7,181.7,322.5L181.7,322.5z"/>
		<path d="M181.4,251.3C181.4,251.3,181.4,251.3,181.4,251.3c-0.1-0.1-0.1-0.2-0.1-0.2L181.4,251.3z"/>
		<path d="M181.8,239.9C181.8,239.8,181.8,239.8,181.8,239.9C181.8,239.8,181.7,239.8,181.8,239.9z"/>
		<path d="M181.9,277.7c0,0.1,0,0.2,0,0.2C181.9,277.8,181.9,277.8,181.9,277.7z"/>
		<path d="M182,343.5C182,343.5,182,343.5,182,343.5C182,343.5,182,343.5,182,343.5L182,343.5z"/>
		<path d="M181.9,343.3c0-0.3,0.1,0.1,0.1,0.2c0.1-0.3,0.1-0.6,0.1-0.8C182,342.6,182,343.1,181.9,343.3z"/>
		<path d="M186.5,276.6l0,0.2C186.5,276.7,186.5,276.6,186.5,276.6z"/>
		<path d="M182.4,375.6l-0.2-0.1C182.3,375.6,182.4,375.6,182.4,375.6z"/>
		<path d="M181.2,251.1L181.2,251.1C181.2,251.1,181.2,251.1,181.2,251.1z"/>
		<path d="M181.9,229.3c0,0,0.1,0,0.1-0.1c0,0,0,0,0,0L181.9,229.3z"/>
		<path d="M182.6,214.8C182.5,214.8,182.5,214.7,182.6,214.8c-0.1,0.2-0.1,0.9-0.1,1.7l0.2,0.1L182.6,214.8z"/>
		<path d="M181.3,249.8c-0.2,1.1,0.1,0.7,0.1,1.5c0.3,0.2,0.7,0.5,0.8,0.8l0.1-0.3c0.1,0.9,0.2,1.8,0.1,2.8l-0.1,0l0.1,1.1l-0.2,0.1
			l0.1,1.5l0-0.2c0,0.4,0.1,1.6,0,2.2l-0.1,0c-0.3,1.9,0.1,3.5,0.1,5.7l-0.2-0.3c-0.2,0.8,0.3,0.2,0.2,1.1l-0.3,0
			c0.3,0.8-0.1,1-0.2,1.6l0.3-0.3l-0.1,1c-0.1,1.1-0.4,0.7-0.6,0.5l0.3,0.8l-0.3,0.2c0.3,0.6-0.1,0.6,0.1,1.6
			c-0.1,0.1-0.2-0.2-0.2,0.2l0.4,1.6l-0.2-1l0.4,0.1c0.3,1-0.1,1.4,0.1,2.1l-0.1-0.5c0.1,1.2-0.1,1.3-0.2,2c0.1-0.2,0.2-0.5,0.3,0
			c0,0.4-0.2,0.2-0.2,0.5c0.3,0.1,0.4,0.9,0.3,1.7c0,0-0.1,0-0.1-0.1c0,0.2,0.1,0.3,0.1,0.7l-0.3-0.2l0.3,0.7
			c-0.1,0.4,0.1,1.1-0.1,1l-0.1-0.3l-0.1,3.4l-0.3,0c0.4,0.3-0.1,1.8,0.3,1.7c-0.2,0.6,0.2,2.5-0.3,2.1c0,2.2,0.4,3.4,0.2,6.1
			c-0.4,1-0.3,3.6-0.3,5.3c0.2,3.4,0.3,5.6,0.5,9.1c-0.6,2.1,0.2,5.2-0.1,7.5l0.2,0.6c-0.4,1.5,0.1,3.8-0.3,5.9
			c0.1,0.5,0.1,0.8,0.1,0.9c0-0.1,0.1-0.2,0.2-0.3c-0.1,0.6,0,1.8-0.3,1.7l0-0.2c-0.3-0.1,0.1,1.8-0.1,2.5l0.3-0.4l-0.1,1.1
			l-0.1-0.3c0.7,4.9-0.3,7.1,0.4,11.8c-0.4-0.6,0.2,0.9-0.2,1c-0.5,1.2,0.1,2.2,0.2,3.1c0,0,0,0,0.1,0.1l0,1.7c-0.5-1,0.4,1.2,0,0.3
			c-0.4,4.4,0,10-0.2,15.1l0.1-0.2c0,1.3,0.1,2.9-0.1,3.8c-0.2,1,0.3,2.1,0.4,2.5c0.2,1.1-0.2,2-0.2,1.6c0.1,1.1,0.5,2.2,0.3,3.8
			c-0.4,0.5,0.4,4.3-0.1,4.4l0,0c-0.3,2,0.2,3.9-0.1,6.1c0,0,0,0-0.1-0.1c0.4,1.3,0.9,2.7,1.4,4c0.2,0,0.3,0.1,0.5,0.1
			c0.3-0.3,0.7-0.6,1.2-0.9c0.5-1.3,0.9-2.6,1.3-3.8l-0.3-10.4l0.5-8.3l-0.2-20.2l-0.4-1.4c0.6-4-0.1-9.1,0.3-13.3l-0.3-0.1
			c0-1.2,0.2-1.1,0.2-1.4c-0.1-11.2-0.5-22.8-0.1-32.9c0.2-1,0.1-3.9,0.3-4.7c-0.4-3.3-0.4-6.8-0.4-10l0,0.1l-0.1-1.5
			c0-0.1,0.1-0.1,0.1,0c-0.3-1.7,0-4.5,0.1-6.6l0,0.1c0-12.5-0.6-24-0.2-36.4c0.4-5.7-0.2-12.4,0.1-19c0.3-1.2,0-14.6-0.1-15.7
			l-0.3,1.5c-0.2-5,0.1-7.3-0.1-11.5l0.1,0.2c0.1-0.6-0.6-1,0.2-7.8h0c0-0.2-0.1-0.2,0-0.7l-0.2,1.2c-0.1-0.7-0.2-1.3-0.3-2.3
			c0-0.2,0.1-0.3,0.1-0.3l-0.1-2.3l0.2-0.7c-0.1-0.5-0.3-0.5-0.4-1.1c-0.4,0.1-0.8,0.1-1.2,0.1c0,0-0.1,0-0.1,0
			c0,0.4-0.1,0.7-0.2,1.1c0,0.4,0,1,0,1.2l-0.2,0c0.3,0.7-0.5,4.7-0.5,5.7c-0.2,0.9,0,2.1-0.1,3.3c-0.1,1.9-0.2,0.9-0.4,1.9
			c-0.1,1.2,0.2-0.2,0.2,0.2l-0.2,1.4c0-0.8-0.1-0.4-0.2-0.2c0,1.2-0.3,3.2,0,3.5c-0.2,1.7-0.3,1.7-0.3,2.4c0.1-0.2,0.1-0.7,0.2-0.7
			c-0.1,0.7,0,0.3,0.1,0c0.1,1-0.6,5.2-0.3,5.5h-0.1c0.3,0.2,0.5-0.1,0.7,0.6l-0.1,0.5l0.1,0.7c-0.1,0.5-0.2,0.2-0.2,0.2
			c0.1,1.2,0,2.8-0.1,4.2l0.7-1.5c-0.2,1.2-0.5,3.3-0.3,3.5l-0.3,0.7c-0.5,2.4,0.2,1.7,0.1,2.6l-0.3,1.2l0-1.2
			c-0.1,1.2-0.2,1.7-0.4,2.6l0,0c0-0.1,0-0.1,0-0.1l0,0.2c0.1,0.1,0.2,0.8,0.2,1.6c0,1.2,0.2,2.1-0.1,4l0.3,0.5l-0.2,1.4h-0.2
			c0-1.4-0.1-4-0.1-5.8l-0.1,0c0,1.1,0.1,2.3,0.1,3c0,0.3-0.3,1.2-0.4,0.6l0.2,0.7c0,3.5,0,3.6-0.2,7.3l0.1-0.3
			c0.1,0.7,0.1,1.5-0.1,1.7c0,2.2-0.2,4.5-0.5,6l0.3,0.3c0,0.5-0.4,1.2-0.1,1.4l0.1,1c0,0.6,0.1,1,0,1.8h0l0,0c0,0,0,0.1,0,0.1
			c0,0,0,0,0,0c-0.1,1.4,0.2,0,0.1,1.6c-0.2,0.5,0.3,0.6,0.3,1.4l-0.4,0.8c-0.2,1.5,0.2,1.7,0.2,3.8c-0.1,1-0.5,1.5-0.8,0.8
			c0.4,0.9,0.2,0.4,0.4,1.7C181.4,250.2,181.4,250,181.3,249.8z"/>
		<path d="M186,179.3L186,179.3C186.1,179.3,186,179.2,186,179.3z"/>
		<polygon points="182.9,206.8 182.9,206.7 182.8,207.1 		"/>
		<path d="M182.9,189.2c0,0.8,0,0.8,0,0.7C182.9,189.6,182.9,189.4,182.9,189.2z"/>
	</g>
	<g id="top_box_line">
		<path d="M332,178.9C332.1,178.9,332.2,178.8,332,178.9L332,178.9z"/>
		<path d="M260.8,179.3C260.8,179.3,260.8,179.3,260.8,179.3c-0.1,0.1-0.2,0.1-0.2,0.1L260.8,179.3z"/>
		<path d="M249.4,178.9C249.3,178.9,249.3,178.9,249.4,178.9C249.3,179,249.3,179,249.4,178.9z"/>
		<path d="M287.2,178.8c0.1,0,0.2,0,0.2,0C287.3,178.8,287.3,178.8,287.2,178.8z"/>
		<path d="M353,178.6C353,178.6,353,178.6,353,178.6C353,178.6,353,178.6,353,178.6L353,178.6z"/>
		<path d="M352.8,178.7c-0.3,0,0.1-0.1,0.2-0.1c-0.3-0.1-0.6-0.1-0.8,0C352.1,178.6,352.6,178.6,352.8,178.7z"/>
		<path d="M286.1,174.9l0.2,0C286.2,174.9,286.1,174.9,286.1,174.9z"/>
		<path d="M385.1,178.3l-0.1,0.1C385.1,178.4,385.1,178.3,385.1,178.3z"/>
		<path d="M260.6,179.4L260.6,179.4C260.6,179.4,260.6,179.4,260.6,179.4z"/>
		<path d="M238.8,178.9C238.8,178.8,238.8,178.8,238.8,178.9C238.7,178.8,238.7,178.8,238.8,178.9L238.8,178.9z"/>
		<path d="M185.5,176.9C185.5,176.9,185.5,176.9,185.5,176.9l0.2,0C185.6,176.8,185.5,176.8,185.5,176.9z"/>
		<path d="M224.3,178.3C224.3,178.3,224.2,178.3,224.3,178.3c0.2,0.1,0.9,0.1,1.7,0.1l0.1-0.2L224.3,178.3z"/>
		<path d="M389.8,174.9l-9.8,0.2l-8.3-0.4l-20.2,0.1l-1.4,0.3c-4-0.5-9.1,0.1-13.3-0.3l-0.1,0.3c-1.2,0-1.1-0.1-1.4-0.2
			c-11.2,0.1-22.8,0.4-32.9,0.1c-1-0.2-3.9-0.1-4.7-0.2c-3.3,0.3-6.8,0.3-10,0.3l0.1,0l-1.5,0c-0.1,0-0.1-0.1,0-0.1
			c-1.7,0.2-4.5,0-6.6-0.1l0.1,0c-12.5-0.1-24,0.4-36.4,0.1c-5.7-0.4-12.4,0.2-19-0.2c-1.2-0.3-14.6-0.1-15.7,0l1.5,0.3
			c-5,0.1-7.3-0.2-11.5,0.1l0.2-0.1c-0.6-0.1-1,0.6-7.8-0.2v0c-0.2,0-0.2,0.1-0.7,0l1.2,0.2c-0.7,0.1-1.3,0.2-2.3,0.2
			c-0.2,0-0.3-0.1-0.3-0.1l-2.3,0.1l-0.3-0.1c-0.5,0.2-1,0.3-1.7,0.3c0,0-0.1,0-0.1,0c-0.1,0.5-0.2,1-0.3,1.4l0,0
			c0.9,0.1,0.9,0.3,1.4,0.3c0,0,0,0,0-0.1l-0.1,0c0,0,0-0.1,0-0.1c0,0,0-0.1,0.3-0.1l0,0c0.4,0,1.1,0,1.4,0l0,0.2
			c0.7-0.3,4.7,0.5,5.7,0.5c0.9,0.2,2.1,0,3.3,0c1.9,0.1,0.9,0.2,1.9,0.4c1.2,0.1-0.2-0.2,0.2-0.2l1.4,0.2c-0.8,0-0.4,0.1-0.2,0.2
			c1.2,0,3.2,0.3,3.5,0c1.7,0.1,1.7,0.3,2.4,0.3c-0.2-0.1-0.7-0.1-0.7-0.2c0.7,0.1,0.3,0,0-0.1c1-0.1,5.2,0.6,5.5,0.2v0.1
			c0.2-0.3-0.1-0.5,0.6-0.6l0.5,0.1l0.7-0.1c0.5,0.1,0.2,0.2,0.2,0.2c1.2-0.1,2.8,0,4.2,0.1l-1.5-0.7c1.2,0.2,3.3,0.5,3.5,0.3
			l0.7,0.2c2.4,0.4,1.7-0.2,2.6-0.1l1.2,0.3l-1.2,0c1.2,0.1,1.7,0.2,2.6,0.4l0,0c-0.1,0-0.1,0-0.1,0l0.2,0c0.1-0.1,0.8-0.2,1.6-0.2
			c1.2,0,2.1-0.2,4,0.1l0.5-0.3l1.4,0.2v0.2c-1.4,0-4,0.1-5.8,0.1l0,0.1c1.1,0,2.3-0.1,3-0.1c0.3,0,1.2,0.3,0.6,0.4l0.7-0.2
			c3.5,0,3.6,0,7.3,0.2l-0.3-0.1c0.7-0.1,1.5-0.1,1.7,0c2.2,0,4.5,0.2,6,0.4l0.3-0.2c0.5,0,1.2,0.4,1.4,0l1-0.1c0.6,0,1-0.1,1.8,0v0
			l0,0c0,0,0.1,0,0.1,0c0,0,0,0,0,0c1.4,0.1,0-0.2,1.6-0.1c0.5,0.2,0.6-0.3,1.4-0.3l0.8,0.3c1.5,0.2,1.7-0.1,3.8-0.2
			c1,0.1,1.5,0.4,0.8,0.7c0.9-0.3,0.4-0.2,1.7-0.4c0.2,0.1,0.1,0.2-0.2,0.3c1.1,0.2,0.7-0.1,1.5-0.1c0.2-0.2,0.5-0.6,0.8-0.7
			l-0.3-0.1c0.9-0.1,1.8-0.2,2.8-0.1l0,0.1l1.1-0.1l0.1,0.2l1.5,0l-0.2,0c0.4,0,1.6-0.1,2.2,0l0,0.1c1.9,0.3,3.5-0.1,5.7-0.1
			l-0.3,0.2c0.8,0.2,0.2-0.3,1.1-0.2l0,0.2c0.8-0.3,1,0.1,1.6,0.2l-0.3-0.3l1,0.1c1.1,0.1,0.7,0.4,0.5,0.5l0.8-0.2l0.2,0.3
			c0.6-0.3,0.6,0,1.6-0.1c0.1,0.1-0.2,0.2,0.2,0.2l1.6-0.4l-1,0.2l0.1-0.4c1-0.3,1.4,0,2.1-0.1l-0.5,0.1c1.2-0.1,1.3,0.1,2,0.1
			c-0.2-0.1-0.5-0.2,0-0.2c0.4,0,0.2,0.1,0.5,0.2c0.1-0.2,0.9-0.4,1.7-0.3c0,0,0,0.1-0.1,0.1c0.2,0,0.3-0.1,0.7,0l-0.2,0.3l0.7-0.3
			c0.4,0.1,1.1-0.1,1,0.1l-0.3,0.1l3.4,0.1l0,0.2c0.3-0.3,1.8,0.1,1.7-0.3c0.6,0.2,2.5-0.1,2.1,0.3c2.2,0,3.4-0.4,6.1-0.2
			c1,0.4,3.6,0.2,5.3,0.3c3.4-0.2,5.6-0.3,9.1-0.4c2.1,0.5,5.2-0.2,7.5,0.1l0.6-0.2c1.5,0.3,3.8-0.1,5.9,0.2
			c0.5-0.1,0.8-0.1,0.9-0.1c-0.1,0-0.2,0-0.3-0.2c0.6,0.1,1.8,0,1.7,0.2l-0.2,0c-0.1,0.3,1.8-0.1,2.5,0.1l-0.4-0.3l1.1,0l-0.3,0.1
			c4.9-0.6,7.1,0.3,11.8-0.3c-0.6,0.3,0.9-0.2,1,0.2c1.2,0.4,2.2-0.1,3.1-0.2c0,0,0,0,0.1-0.1l1.7,0c-1,0.4,1.2-0.3,0.3,0
			c4.4,0.3,10,0,15.1,0.1l-0.2-0.1c1.3,0,2.9-0.1,3.8,0.1c1,0.2,2.1-0.3,2.5-0.3c0.9-0.2,1.8,0.1,1.7,0.1c1.1-0.1,2.2-0.4,3.7-0.3
			c0.5,0.3,4.3-0.3,4.4,0l0,0c1.6,0.2,3.1,0,4.8,0C389.8,177.1,389.8,176,389.8,174.9z"/>
		<path d="M188.8,175L188.8,175C188.8,174.9,188.7,175,188.8,175z"/>
		<polygon points="216.3,178 216.2,178 216.6,178.2 		"/>
		<path d="M198.7,178.1c0.8,0,0.8,0,0.7,0C199.1,178.1,198.9,178.1,198.7,178.1z"/>
	</g>
	<g id="right_box_line">
		<path d="M389.8,225.7C389.8,225.7,389.8,225.6,389.8,225.7L389.8,225.7z"/>
		<path d="M390.2,281.5C390.2,281.5,390.2,281.5,390.2,281.5c0.1,0.1,0.1,0.1,0.1,0.2L390.2,281.5z"/>
		<path d="M389.9,290.5C389.9,290.5,389.9,290.5,389.9,290.5C389.9,290.5,389.9,290.5,389.9,290.5z"/>
		<path d="M389.7,260.8c0-0.1,0-0.1,0-0.2C389.7,260.7,389.7,260.8,389.7,260.8z"/>
		<path d="M389.6,209.3C389.6,209.3,389.6,209.3,389.6,209.3C389.6,209.3,389.6,209.3,389.6,209.3L389.6,209.3z"/>
		<path d="M389.7,209.5c0,0.2-0.1-0.1-0.1-0.1c-0.1,0.2-0.1,0.4,0,0.7C389.6,210,389.6,209.6,389.7,209.5z"/>
		<path d="M389.4,179.5L389.4,179.5C389.4,179.5,389.4,179.5,389.4,179.5z"/>
		<path d="M385.9,261.7c0,0,0-0.1,0-0.1C385.9,261.7,385.9,261.7,385.9,261.7z"/>
		<path d="M389.3,184.2l0.1,0.1C389.3,184.2,389.3,184.2,389.3,184.2z"/>
		<path d="M390.3,281.7L390.3,281.7C390.4,281.7,390.3,281.7,390.3,281.7z"/>
		<path d="M389.8,298.8C389.8,298.8,389.7,298.8,389.8,298.8C389.7,298.8,389.7,298.8,389.8,298.8L389.8,298.8z"/>
		<path d="M387.9,340.6C387.9,340.5,387.9,340.5,387.9,340.6l0-0.2C387.8,340.4,387.8,340.5,387.9,340.6z"/>
		<path d="M389.3,310.1C389.3,310.1,389.3,310.2,389.3,310.1c0.1-0.2,0.1-0.7,0.1-1.3l-0.2,0L389.3,310.1z"/>
		<path d="M385.8,322.6l0.3-1.2c0.1,3.9-0.2,5.7,0.1,9l-0.1-0.2c-0.1,0.5,0.6,0.8-0.2,6.1h0c0,0.2,0.1,0.2,0,0.6l0.2-0.9
			c0.1,0.6,0.2,1,0.2,1.8c0,0.2-0.1,0.2-0.1,0.2l0.1,1.8l-0.2,0.6c0.1,0.6,0.5,0.3,0.3,1.8c0.3-0.6,0.2,0.7,0.3,0.6
			c0,0.1-0.1,0.2-0.1,0.4c0,0.9,0.1,2.5,0.3,3c0,0,0.6-3.5,0.9-4.4c-0.1,1.2,0,0.3,0.1,0.1l-0.1-0.1c0.1-0.7,0.3-0.7,0.3-1.1
			c0,0,0,0-0.1,0l0,0c0,0-0.1,0-0.1,0c0,0-0.1,0-0.1-0.2l0,0c0-0.3,0-0.8,0-1.1l0.2,0c-0.3-0.6,0.4-3.7,0.4-4.4c0.2-0.7,0-1.7,0-2.6
			c0-1.5,0.2-0.7,0.4-1.5c0.1-0.9-0.2,0.2-0.2-0.2l0.2-1.1c0,0.6,0.1,0.3,0.2,0.2c0-1,0.3-2.5,0-2.8c0.1-1.3,0.3-1.3,0.3-1.9
			c-0.1,0.2-0.1,0.6-0.2,0.6c0.1-0.5,0-0.2-0.1,0c-0.1-0.8,0.5-4.1,0.2-4.3h0.1c-0.2-0.2-0.5,0.1-0.6-0.4l0.1-0.4l-0.1-0.6
			c0.1-0.4,0.1-0.2,0.2-0.2c-0.1-0.9,0-2.2,0.1-3.3l-0.7,1.2c0.2-0.9,0.5-2.6,0.3-2.8l0.2-0.6c0.4-1.9-0.2-1.3-0.1-2l0.2-0.9l0,0.9
			c0.1-0.9,0.2-1.3,0.4-2c0,0,0,0,0,0c0,0.1,0,0.1,0,0.1l0-0.1c-0.1-0.1-0.2-0.6-0.2-1.2c0-0.9-0.1-1.7,0.1-3.1l-0.3-0.4l0.1-1.1
			h0.2c0,1.1,0.1,3.1,0.1,4.5l0.1,0c0-0.8-0.1-1.8-0.1-2.3c0-0.3,0.2-1,0.4-0.5l-0.2-0.5c0-2.8,0-2.8,0.2-5.7l-0.1,0.3
			c-0.1-0.6-0.1-1.1,0-1.3c0-1.7,0.2-3.5,0.4-4.7l-0.2-0.2c0-0.4,0.4-0.9,0-1.1l-0.1-0.8c0-0.5-0.1-0.8,0-1.4c0,0,0,0,0,0
			c0,0,0,0,0,0c0,0,0-0.1,0-0.1c0,0,0,0,0,0c0.1-1.1-0.2,0-0.1-1.3c0.2-0.4-0.3-0.5-0.2-1.1l0.3-0.6c0.2-1.1-0.1-1.3-0.1-3
			c0.1-0.8,0.4-1.2,0.7-0.7c-0.3-0.7-0.2-0.3-0.4-1.3c0.1-0.1,0.2,0,0.3,0.2c0.1-0.9-0.1-0.5-0.1-1.2c-0.2-0.2-0.6-0.4-0.6-0.6
			l-0.1,0.2c-0.1-0.7-0.2-1.4-0.1-2.2l0.1,0l-0.1-0.8l0.2-0.1l0-1.2l0,0.2c0-0.3-0.1-1.2,0-1.7l0.1,0c0.3-1.5-0.1-2.7-0.1-4.5
			l0.2,0.2c0.2-0.6-0.3-0.2-0.2-0.9l0.2,0c-0.3-0.6,0.1-0.8,0.2-1.2l-0.3,0.2l0.1-0.8c0.1-0.9,0.4-0.6,0.5-0.4l-0.2-0.6l0.2-0.1
			c-0.3-0.4,0-0.4-0.1-1.2c0.1-0.1,0.1,0.1,0.2-0.1l-0.4-1.3l0.2,0.8l-0.4-0.1c-0.3-0.8,0-1.1-0.1-1.7l0.1,0.4
			c-0.1-0.9,0.1-1,0.1-1.5c-0.1,0.2-0.2,0.4-0.2,0c0-0.3,0.1-0.2,0.2-0.4c-0.2-0.1-0.4-0.7-0.3-1.4c0,0,0.1,0,0.1,0.1
			c0-0.2-0.1-0.2,0-0.5l0.3,0.2l-0.3-0.5c0.1-0.4-0.1-0.9,0.1-0.8l0.1,0.2l0.1-2.7l0.2,0c-0.3-0.3,0.1-1.4-0.3-1.4
			c0.2-0.5-0.1-2,0.3-1.7c0-1.7-0.4-2.7-0.2-4.8c0.4-0.8,0.2-2.8,0.3-4.2c-0.1-2.7-0.3-4.4-0.4-7.1c0.5-1.6-0.2-4.1,0.1-5.8
			l-0.2-0.5c0.3-1.2-0.1-3,0.2-4.6c-0.1-0.4-0.1-0.6-0.1-0.7c0,0.1,0,0.2-0.2,0.2c0.1-0.5,0-1.4,0.2-1.3l0,0.1
			c0.2,0.1-0.1-1.4,0.1-1.9l-0.3,0.3l0-0.9l0.1,0.2c-0.6-3.9,0.3-5.6-0.3-9.2c0.3,0.5-0.2-0.7,0.2-0.8c0.4-0.9-0.1-1.7-0.2-2.4
			c0,0,0,0-0.1-0.1l0-1.3c0.4,0.8-0.3-0.9,0-0.2c0.3-3.4,0-7.9,0.1-11.8l-0.1,0.2c0-1-0.1-2.2,0.1-3c0.2-0.8-0.3-1.7-0.3-2
			c-0.2-0.8,0.2-1.6,0.2-1.2c0-0.9-0.4-1.7-0.3-3c0.3-0.4-0.3-3.4,0-3.4l0,0c0.3-1.6-0.2-3.1,0.1-4.8c0,0,0,0,0.1,0.1l-1.2-3.5
			l-1.3,1l-1,3l0.2,8.2l-0.4,6.5l0.1,15.8l0.3,1.1c-0.5,3.1,0.1,7.1-0.3,10.5l0.2,0.1c0,0.9-0.1,0.9-0.2,1.1
			c0.1,8.8,0.4,17.8,0.1,25.8c-0.2,0.8-0.1,3.1-0.2,3.7c0.3,2.6,0.3,5.3,0.3,7.9l0-0.1l0,1.2c0,0.1,0,0.1-0.1,0
			c0.2,1.4,0,3.5-0.1,5.2l0-0.1c0,9.8,0.4,18.8,0.1,28.5c-0.4,4.5,0.2,9.7-0.2,14.9C385.5,311.2,385.7,321.6,385.8,322.6z"/>
		<path d="M386.1,338L386.1,338C386,337.9,386,338,386.1,338z"/>
		<path d="M389,316.4C389,316.4,389,316.4,389,316.4l0.1-0.2L389,316.4z"/>
		<path d="M389.1,330.2c0-0.6,0-0.7,0-0.6C389,329.9,389,330.1,389.1,330.2z"/>
		<path d="M386.3,343c0,0.3,0.1,0.2,0.1,0c0-0.3,0-0.6,0-0.6C386.4,342.7,386.3,342.8,386.3,343z"/>
		<path d="M387.7,341.7l0.1,0.1C387.8,341.6,387.8,341.6,387.7,341.7z"/>
	</g>
</g>
<g id="The_Terrarium_Text">
	<path class="st0" d="M162,416.3c0.5-0.4,1-0.5,1.3-0.5l0.1,0.1c0.1,0.1,0.1,0.1,0.2,0.1l0.6-0.4c0.1,0,0.1,0,0.2,0.1h0.1
		c0.4-0.1,0.6-0.1,0.7-0.1c0.1,0,0.6-0.4,1.1-0.4c0.4,0,0.7-0.2,1.1-0.6c0.1,0.1,0.4,0.1,0.6,0.1c0.4,0,0.8-0.1,1.4-0.5
		c1.1,0,1.9-0.1,2.6-0.5c0,0.4,0.6,0.2,0.6,0.4c0.1,0,0.7-0.4,1.2-0.4h1.4c0.1-0.1,0.5-0.2,1.1-0.2c0.1,0,0.1,0,0.2,0.1l0.2,0.1h0.6
		c0.1-0.1,0.2-0.2,0.6-0.2h0.2l0.1-0.1c0.1,0,0.4,0,0.5,0.1h1.4c0.1,0,0.7,0.2,1.2,0.2l0.6,0.7c0.1,0.5,0.4,0.7,0.6,0.8
		c0.1,0.5,0.7,1.3,0.7,1.7c0,0.4,0.1,0.6,0.4,0.8c0,0.2,0.1,0.5,0.4,0.7c0.1,0.1,0.1,0.4,0.1,0.6c0,0.5-0.1,1.1-0.5,1.7
		c-0.4,0.1-0.5,0.4-0.6,0.5c-0.1-0.1-0.2-0.1-0.5-0.1c-0.1,0-0.6,0.1-0.7,0.1l-0.1-0.1h-0.5H181c-0.1,0-0.2,0-0.4-0.1
		c-0.2,0-0.4-0.1-0.4-0.4c-0.8-0.1-1.3-0.2-1.4-0.2c-0.1-0.1-0.5-0.1-1-0.1h-0.8c-0.5,0-0.8,0-1.1,0.1c0-0.1-0.8-0.2-1.2-0.2h-1.2
		c-0.5,0-0.8,0-1.2-0.1l-0.1,0.1H172c-0.4,0-0.7,0-0.8,0.1c-0.4-0.1-0.7-0.2-0.8-0.2c-0.1,0.1-0.5,0.1-1,0.1H168
		c-0.1,0.1-0.5,0.2-1,0.2h-0.5c-0.4,0-0.5,0.1-0.6,0.2h-0.7c-0.6,0-1,0.1-1.1,0.2c-0.1-0.1-0.4-0.1-0.5-0.1c-0.5,0-1.6,0.5-2.2,0.5
		c-0.1,0-1,0.1-1.3,0.1s-0.5-0.1-0.5-0.2l-0.2,0.4H159l-1.1,1c-0.6,0.6-0.8,1.4-0.8,2.6v0.8c0,0.6-1.1,3.7-1.1,4.3v1.1
		c0,0.5-0.1,3-0.1,4c0.1,0.1,0.1,0.4,0.1,0.7c-0.1,0.5-0.2,0.8-0.2,1c-0.1,0.1-0.1,0.4-0.1,0.7c0,0.5,0.2,1.8,0.2,2.2l0.1,0.4
		c0,0.4-0.1,1-0.2,1.8c0,0.4,0.1,0.6,0.1,0.7c0,0.5-0.1,2.3-0.1,3.2c0,0.1,0.2,0.4,0.2,0.5s0,0.4-0.1,0.5l-0.1,0.2l0.2,0.4
		c0,0.5,0.2,2.6,0.2,3.5v0.5c0,0.5,0.1,1.6,0.1,2c0,1.1,0.2,3.8,0.2,5.2c0,0.6,0.1,1.7,0.2,3.5c0.2,1.7,0.4,2.9,0.4,3.5
		c0,0.5,0.5,1.7,0.5,2.3c0,0.1,0.1,1.8,0.1,1.9c0,0.5,3.2,1,3.2,1.8c-0.5,0.2,0.2,3.1,0.4,4.4c-0.2,1-0.4,1.4-0.4,1.6
		c0,0.5,0.2,1.3,0.2,1.4c-0.1,0.5-0.7,1.1-1.1,1.6l-0.4,0.4c0,0.4-0.1,1.4-0.1,1.9c0,0.1,0.4,0.5,0.4,0.6c0,1-2.4,1.6-2.4,2.4
		l-2,0.6l-0.1-0.1c-0.1-0.1-0.1-0.1-0.2-0.1c-0.4,0-0.7,0-0.8-0.1c-0.4-0.4-0.7-0.6-1.1-0.7l-1-1.2l-0.6-1.3l-0.1,0.1h-0.2
		c0-0.1,0-0.1-0.1-0.2l-0.1-0.1c0-0.8-0.4-2.2-0.1-2.4l-0.1-0.4c0-0.4-0.4-1.3-0.4-1.9c-0.1-1.9-0.2-3.4-0.2-4.3
		c-0.1-0.7-0.1-1.8-0.1-3.4c0-1.3,0-2.4,0.1-3V465c0-0.4,0.4-1.3,0.4-1.8c0-0.1,0-0.2-0.1-0.5v-2.5c0-1.4-0.1-2.4-0.2-2.9
		c0-0.1,0-0.1,0.1-0.2l0.1-0.1c-0.1-0.1-0.1-0.5-0.1-0.8s0-0.6,0.1-0.8v-2.4c0-0.4,0.1-0.7,0.2-0.8c-0.1-0.4-0.2-0.6-0.2-1
		c0-0.5,0.2-1.8,0.2-2.3v-2.2c0-0.4,0.1-1.7,0.1-1.8l-0.1-0.2c-0.1-0.1-0.1-0.2-0.1-0.4s0.1-0.2,0.2-0.2v-2.5c0-0.1,0-0.2-0.1-0.5
		v-0.2c0-0.4,0.1-1,0.1-1.1v-2.8c0-0.8,0.1-2.3,0.1-2.9l0.1-0.4v-1.6c-0.1-0.1-0.1-0.7,0-1.1c0.2-0.7,0.2-1.1,0-1.8v-1.7l-0.1-0.1
		v-0.4c0.1-0.4,0.1-0.7,0.1-1c0-0.4-0.2-2.3-0.4-3.1c-0.4,0-1.4,0.5-1.6,0.5h-0.1c-0.1-0.1-0.2-0.1-0.4-0.1c-0.5,0-1.6,0.5-2,0.5
		c-0.1,0-0.2,0-0.4,0.1h-0.8c-0.2,0.2-0.7,0.4-1.3,0.4c-0.2,0.1-0.5,0.2-0.6,0.2c-0.4,0-0.6,0-0.7,0.1c-0.4,0-0.6,0.4-1,0.4
		c-1.8,0-2.8,0.1-3.1,0.4c-0.1,0-0.7,0.4-0.8,0.4c-0.1-0.1-0.2-0.1-0.6-0.1c-0.4,0-0.7,0.1-1,0.2c0,0.2-3.4,0.8-3.5,1
		c-0.4-0.4-1,0.1-1.3,0.1l-0.6,0.1c-0.1,0-0.2,0-0.4,0.1l-0.2,0.1c-0.6,0.1-1.3,0.1-2.4,0.1c-0.1,0.1-1.7,0.6-1.7,1.4
		c0.1,0.1,0.5,0.2,1.1,0.4c0.4,0.1,0.7,0.2,1.3,0.2c0.1,0.4,0.5,0.5,1.3,0.5l0.6,0.5h0.2c0.1,0.1,0.1,0.1,0.2,0.1
		c0,0.4-0.4,1-0.5,1.4c-0.5-0.1-1.7,0-2.3-0.4c-0.1,0-0.1,0.1-0.2,0.2L128,432c-0.1-0.1-1.3-0.4-1.7-0.4h-0.5c-0.5,0-0.8-0.1-1-0.2
		c-0.4,0-0.7,0.1-0.8,0.1c-0.1,0-0.2,0-0.4-0.1c-1,0.4-1.6,0.4-1.9,0c-0.2,0-0.4,0.1-0.4,0.2l-0.7-0.4l-0.4,0.4l-0.1,0.2
		c-0.1,0.2-0.1,0.4-0.1,0.5c-0.2,0.2-0.6,0.4-1,0.4c-0.5,0-1.9-0.6-2.4-0.7c-0.1-0.1-0.2-0.2-0.4-0.2c-0.1-0.1-0.5-0.1-1.2-0.1
		c-0.1-0.2-0.2-0.4-0.5-0.4l-0.2-0.2l-0.1-0.1c-1,0-1.3-0.8-1.8-1.3c0-0.2-0.1-0.6-0.5-1.1c-0.1-0.4-0.2-0.7-0.4-0.8s-0.2-0.8-0.6-1
		c0-0.4,0.5-0.2,0.6-0.4c0.4,0,0.5-0.4,0.6-0.4c0-0.8-1.3-0.6-1.4-1.1c0-0.4,0.5-0.7,0.5-0.8l1,0.4c0.4-0.2,0.6-0.5,0.6-0.7
		c0-0.4,0.1-0.6,0.5-0.7c0.1,0,0.1,0.4,0.5,0.5h0.5c0.6,0,1.6-0.4,2-0.4c0.2,0.2,0.5,0.4,0.7,0.4c0.6,0,0.8,0.1,1,0.2l1.7-0.6
		c0.1,0,0.8-0.1,1-0.1c0.2,0,0.4,0,0.5,0.1l0.1-0.1l0.2-0.2c0.1,0,0.4,0,0.5,0.1l0.1,0.1c0.2-0.1,0.8-0.4,1.8-0.6h0.7
		c0.4,0,0.7-0.1,0.8-0.4c0,0.4,0.5,0.2,0.5,0.4c0.2-0.2,0.5-0.4,0.6-0.4c0.1,0.1,0.4,0.1,0.6,0.1c0.5,0,0.8-0.1,1.2-0.2
		c0.1,0,0.2,0,0.2,0.1h0.1c0.5-0.2,0.8-0.4,1.1-0.4c0.1-0.1,0.2-0.1,0.6-0.1c0.1,0,0.2-0.1,0.2-0.2c0.4,0,0.6,0.1,0.7,0.4
		c0.2-0.2,0.8-0.4,1.7-0.4c0.1,0,3.6-1.1,3.7-1.1c0.4,0,1.1,0.1,1.2,0.1h1.3c0.1,0,1.2-0.4,2-0.7l0.6-0.1c0.4,0,0.5,0,0.6,0.1
		c0.1,0,1-0.4,1.4-0.4h0.6c0.1,0,0.2-0.1,0.4-0.4c0.1,0,0.6,0.1,0.7,0.1s0.2-0.1,0.4-0.2l0.8,0.2l0.1-0.1l0.6-0.4
		c0.5,0,1.2-0.4,1.6-0.4c0,0.1,0.1,0.1,0.5,0.2l0.4,0.1c0.4-0.1,0.7-0.6,1.2-1.6c0-0.4-0.1-0.6-0.2-0.7c0-0.1-0.6-0.2-0.6-0.6
		c-0.4,0-0.5,0.1-0.5,0.2l-0.2-0.4c-0.1-0.2-0.4-0.4-0.5-0.4c0-0.1-0.5-0.8-0.6-1c-0.4-0.4-0.5-0.6-0.5-0.8c0.4,0,0.7,0.5,1.2,0.5
		c0,0.2,0.7,0.4,1,0.6c0.6,0,1.2,0.2,1.9,0.8c0.1,0,0.1-0.1,0.1-0.2l0.1-0.2c0.2,0.1,0.5,0.1,0.8,0.1h0.6c0,0.1,0.1,0.6,0.4,1.3
		c0.1,0.1,0.4,0.1,0.7,0.1c0.4,0.4,0.6,0.6,0.7,0.6l0.4,0.6c0-0.1,0.1-0.2,0.5-0.4c0.1,0,0.1,0,0.2-0.1c0.1-0.1,0.2-0.2,0.4-0.2
		c0.1-0.1,0.4-0.1,0.6-0.1c0.1,0,1.1,0.1,1.2,0.1c0.2-0.2,0.5-0.4,0.7-0.4c0.4-0.1,0.6-0.2,0.8-0.2h0.6l0.4,0.1l0.2-0.1H162z
		 M144,411c-0.1-0.1-0.4-0.2-0.5-0.2l-0.4-0.1l-0.1-0.1c-0.1-0.1-0.1-0.2-0.2-0.2c0-0.2,0-0.4,0.1-0.4l0.1,0.1h0.2
		c0.1,0,0.2,0,0.4-0.1C143.6,410.1,144,410.5,144,411z M150.6,426.9c0,0.2-0.1,0.4-0.2,0.4L150.6,426.9z"/>
	<path class="st0" d="M171.6,461.7h-0.5c0,0.4,0.2,0.7,0.2,0.8v0.6c0,0.1-0.1,1.1-0.2,2.6l0.1,0.2c0.1,0.1,0.1,0.2,0.2,0.2v0.2
		c-0.1,0.1-0.1,0.1-0.1,0.2c0.1,0,0.1,0.1,0.1,0.4c0,0.1,0.1,0.2,0.1,0.4l-0.1,0.7c-0.4,1-0.6,2.2-0.6,2.6c0.2,0.1,0.4,0.5,0.5,0.8
		c-0.6,0.8-0.8,1.8-0.8,2.8c0-0.1-0.1-0.2-0.5-0.2c-0.2,0.2-0.6,0.4-1.1,0.4c0-0.1-1.2-1-1.3-1.9c0,0.1-0.1,0.4-0.4,0.6l-1.3-1.3
		c0-1.4-1-2.3-0.5-2.8l-0.4-0.2c0-0.1,0.4-0.8,0.4-1l-0.2-0.5c1.1-0.4-0.6-2.5,0.5-2.5c-0.4-0.6-0.5-1.2-0.5-1.7
		c0-0.6,0.5-2.9,0.5-3.8c0,0,0,0,0-0.1l0.1-0.2c0-0.1,0-0.2-0.1-0.5l-0.1-0.2v-0.8l0.2-1c-0.1-0.1-0.2-0.5-0.2-0.8
		c0.6-1.4-0.4-1.9,0-2.6l0.1-0.1c0-0.1,0-0.2-0.1-0.4l-0.1-0.2v-0.1c0.1-0.1,0.1-0.1,0.1-0.2c-0.1,0-0.1-0.1-0.1-0.4
		c0-0.4,0.1-1.1,0.2-2.2l0.1-1.6c0-0.1,0.1-0.2,0.2-0.2c-0.2,0-0.4-1.3-0.4-4.1c0-1.2,0.1-1.9,0.4-2.2c-0.2-0.2-0.4-0.5-0.4-0.6
		s0.1-0.2,0.2-0.4c0-0.1-0.5-0.2-0.5-0.6c0-0.8,0.4-2.9,0.4-3.4c0-0.4-0.1-0.7-0.4-1c0.1,0,0.2-0.1,0.2-0.4v-0.6
		c0-0.2,0-0.4,0.1-0.5c0-0.1-0.4-0.6-0.4-1V432c0-0.2,0.1-0.4,0.2-0.4c-0.6-0.5-0.8-1.2-0.8-2.3c0-0.6,0.2-2.2,0.2-2.6
		c0-0.4,0-0.5-0.1-0.6c0.1-0.2,0.1-0.6,0.1-1c0-1-0.5-2.9-0.5-3.8c0-0.1,0.1-1.1,0.4-1.1c-0.2-0.1-0.4-0.4-0.4-0.7
		c0-0.1,0.1-0.4,0.2-0.7l-0.1-0.1v-0.4c0-0.1,0-0.2,0.1-0.4v-1c0-0.1,0-0.2,0.1-0.4c-0.1,0-0.2-0.2-0.2-0.6c0-0.5,0.2-2,0.2-2.4
		c0-0.4,0-0.5-0.1-0.6l0.2-0.2l0.1-0.1v-0.2c-0.1-0.4-0.1-0.4,0-0.7l0.1-0.4c0-0.1-0.1-0.2-0.2-0.4l0.1-0.2c0.2-0.1,0.5-1.4,0.2-2.2
		v-0.4c0.4,0,0.6-0.2,0.6-0.8v-0.5c0-1,2.2-2.3,2.2-2.8l0.6-0.6h0.1c0.1,0.1,0.2,0.2,0.6-0.1c1.3,0.4,3.6,2.3,3.6,3.4
		c0,0.1,0.5,0.6,0.5,1c-0.7,0.7-1.1,1.4-1.1,2.3c0,0.1,0.1,0.5,0.1,0.6l-0.2,0.1c-0.1,0.1-0.2,0.2-0.2,0.6c0,0.1-0.1,0.2-0.2,0.6
		c0.2,0.1,0.4,0.4,0.4,0.7l-0.6,2c-0.1,0-0.2,0.1-0.2,0.4c0.4,0,0.6,0.5,0.6,1.6l-0.1,1.6c-0.1,0.8-2.4,1.9-2.4,2
		c0,0.1,0.2,0.5,0.2,0.6v0.1c-0.1,0.1-0.1,0.1-0.1,0.2l0.1,0.5c0,0.1-0.6,0.4-0.7,0.7c0,0.1,0.1,0.5,0.4,1c-0.1,0-0.2,0.1-0.2,0.5
		c0,0.1,0.1,0.6,0.1,0.7s-0.1,0.2-0.2,0.2c-0.1,0.2-0.1,0.6-0.1,1.2c0,1.8,0.2,2.6,0.6,2.6c-0.1,0.4-0.2,0.5-0.2,0.6
		c0,0.2,0,0.4,0.1,0.5c-0.1,0.5-0.2,0.8-0.2,1l0.1,0.2l0.1,0.2c-0.1,0.1-0.2,0.2-0.2,0.4v3.2c0,0.6,0.4,2.2,0.4,2.8v0.5
		c-0.1,0.1-0.2,0.2-0.2,0.4c0,0.1,0.1,0.2,0.4,0.2l-0.6,0.1c0,0.4,0.4,1.9,0.4,2.5c0,0.6-0.1,1-0.5,1.1c0,0.1,0,0.1,0.1,0.1l0.2,0.1
		c-0.1,0.1-0.1,0.2-0.1,0.4c-0.1,0.5-0.2,1.2-0.2,2.3c0,3.2,0.1,5,0.4,5.3c0,0.2,0.7,0.6,0.2,0.6c0,0.1,0,0.1-0.1,0.2
		c0.2,0.1,0.4,0.1,0.4,0.2c0,0.2-0.1,0.5-0.2,0.6c0.1,0.7,0.5,1.1,0.8,1.1c0,0,0,0,0.1,0l0.2,0.1c0.4,0,0.8-0.7,1.3-2
		c0.5-1.4,1-2.3,1.3-2.4c0-1.4,2.3-3.4,2.6-3.8c0.7-1.3,1.1-1.9,1.2-1.9c0.4-0.4,1.1-0.6,2-0.6c0.5,0,0.8,0,1.1,0.1l1.6,0.7l1.2,0.6
		l1.6,1.1c0.5,0.4,1.3,1.9,1.9,2.3c0.5,1.3,0.8,2,1.1,2.3c0.1,0.4,0.1,1.1,0.1,1.9c0,1-0.2,3.4-0.8,7.1c0,0.4,0.2,1.7,0.2,2.3
		c-0.4,0.4-0.5,1-0.5,1.9c0,0.6,0,1.1,0.1,1.3c0.1,1.4,1.6,3.7,1.7,4.3c-0.4,1.1-0.8,1.6-1.7,1.6c-0.5,0-1.9-0.6-4.2-1.9
		c-0.1-0.1-0.1-0.2-0.1-0.4c-0.5-0.8-0.7-1.9-0.8-3.1v-0.7c0-0.5,0.4-0.8,0.4-1c0-0.4-0.1-1.3-0.1-1.8c0-0.6,0-1,0.1-1.2
		c0-0.4,0.1-1.2,0.2-2.8c0.1-1.6,0.2-2.5,0.2-2.9c0.1-1.8,0.2-2.8,0.4-3c-0.8-1.7-1.8-2.5-2.6-2.5c-0.2,0-0.5,0.1-0.6,0.4l-0.5,0.4
		l-0.4,0.2c-0.8,1.3-2.9,3.1-4.2,3.1c0,1.6-0.4,2.3-1.1,2.3c0,1.3-1,2.3-1.1,2.8c-0.1,0.4-1,1.9-1.4,2.3
		C171.3,460.6,171.6,461.1,171.6,461.7z"/>
	<path class="st0" d="M203.4,446.3c0.8,0,1.4,0.6,2.3,0.6c0.2,0,0.4,0,0.5-0.1l1.2,0.4c0.7,0.2,1.2,0.5,1.4,0.8
		c1.3,1.4,2.3,2.5,2.2,4.7c0,0.4-0.1,1.8-0.1,2.3c0,0.1-0.2,0.5-0.6,1.1c0,0.1,0.1,0.6,0.1,0.7c0,0.1,0,0.2-0.1,0.4
		c-0.4,0-0.5,0.1-0.5,0.4c0,0.1,0,0.2,0.1,0.4c-0.5,0-1,0.7-1.3,1.2l-0.2,0.4c-0.1,0-0.5,0.2-1.1,0.6c-0.1,0.1-0.6,0.2-1.4,0.5
		c-0.1,0.1-1.6,1-2.4,1.3c-0.1,0-0.5-0.4-0.8-0.4c-0.5,0-1.6,0.7-2.5,0.7c-0.6,0.1-0.8,0.5-0.8,1.3c0,1.7,0.6,2.9,1.9,3.7
		c0.1,0.1,0.5,0.1,1,0.1c0.1,0,1.1,0.1,1.4,0.1c0.4,0,0.6-0.1,1-0.2c0.5-0.1,0.8-0.6,1.4-1c0.4,0,0.6,0,0.7-0.1
		c0.5-0.8,3.4-1.8,3.5-1.9l0.4-0.2l0.1,0.1h0.2c0.2-0.4,0.4-0.6,0.5-0.6l0.7-0.4c0.2,0,0.6-0.4,1-1.2c0.1-0.1,0.4-0.1,0.7-0.1
		l0.2-0.4l0.5-0.6c0.1,0,0.2,0.1,0.4,0.2c0.1-0.4,1.1-1.1,1.1-1.7c0.6-0.1,1.2-1,2.2-1.1c0,0.4,0.5,0.5,0.5,0.6
		c-0.1,0.6-1.9,2.6-1.9,3.2c-0.6,1-1.2,1.7-1.8,2.2c-0.1,0.1-0.4,0.1-0.7,0.1c-1.1,1.1-1.7,1.8-1.8,2.2c-0.5,0-1.2,0.4-1.6,0.4
		c-0.6,0.5-0.7,1.3-2,1.7c-0.2,0-0.4,0.7-0.4,1c-0.8,0-2.6,0.7-2.8,0.7c-1.1,1.1-1.8,1.7-2.2,1.7c-0.5,0-1-0.4-1.1-0.4
		c-0.2,0.2-0.5,0.4-0.6,0.4c-0.5,0-1.4-0.8-1.9-0.8c-0.1,0-0.2,0-0.4,0.1c-0.4-0.4-1.6-0.7-1.9-0.8c-0.7-0.7-1.3-1.4-1.7-2.2
		c-0.2-0.5-0.5-1.3-0.7-2.5l-0.2-0.5l-0.2-0.2v-1.3l-0.5-0.5l0.1-0.2c0.5,0-0.5-2,0-2.4c0-0.6-0.2-1.4-0.2-1.6
		c0-0.4,0.1-0.6,0.2-0.8c0.1-0.1,0.2-0.2,0.2-0.5v-0.5l0.1-0.4c0.6-0.8,1-1.9,1.2-3.5c2-1.6,3-2.9,3-4.1l0.6-0.4
		c1-0.6,1.9-1.2,2-1.6C201.4,447,203,446.7,203.4,446.3z M204.1,457.6c0.1,0,0.2,0,0.4-0.1l0.7-1.6c0.5-0.4,0.7-0.6,0.7-0.8
		c0.5-1.3,0.7-2.3,0.7-2.9c0-0.6-0.4-1.3-1-2.2c-1.2,0.5-1.4,0.6-2.6,0.2c-0.1,0-0.1,0-0.2,0.1l-0.1,0.2c-1.1,0.1-3,2.2-3.1,3.1
		c-0.4,0.2-0.5,0.7-0.5,1.3c0,0.5,0.1,1.8,0.1,2.3c0,0.6,0,1-0.1,1.2c0.7,0.2,1.2,0.4,1.4,0.4c0.4,0,0.8-0.1,1.3-0.4
		C202.8,457.9,203.5,457.6,204.1,457.6z M219.7,462.5c-0.4,0-0.2-0.5-0.1-0.6C220.2,462,220.2,462.5,219.7,462.5z"/>
	<path class="st0" d="M275.1,416.3c0.5-0.4,1-0.5,1.3-0.5l0.1,0.1c0.1,0.1,0.1,0.1,0.2,0.1l0.6-0.4c0.1,0,0.1,0,0.2,0.1h0.1
		c0.4-0.1,0.6-0.1,0.7-0.1s0.6-0.4,1.1-0.4c0.4,0,0.7-0.2,1.1-0.6c0.1,0.1,0.4,0.1,0.6,0.1c0.4,0,0.8-0.1,1.4-0.5
		c1.1,0,1.9-0.1,2.6-0.5c0,0.4,0.6,0.2,0.6,0.4c0.1,0,0.7-0.4,1.2-0.4h1.4c0.1-0.1,0.5-0.2,1.1-0.2c0.1,0,0.1,0,0.2,0.1l0.2,0.1h0.6
		c0.1-0.1,0.2-0.2,0.6-0.2h0.2l0.1-0.1c0.1,0,0.4,0,0.5,0.1h1.4c0.1,0,0.7,0.2,1.2,0.2l0.6,0.7c0.1,0.5,0.4,0.7,0.6,0.8
		c0.1,0.5,0.7,1.3,0.7,1.7c0,0.4,0.1,0.6,0.4,0.8c0,0.2,0.1,0.5,0.4,0.7c0.1,0.1,0.1,0.4,0.1,0.6c0,0.5-0.1,1.1-0.5,1.7
		c-0.4,0.1-0.5,0.4-0.6,0.5c-0.1-0.1-0.2-0.1-0.5-0.1c-0.1,0-0.6,0.1-0.7,0.1l-0.1-0.1h-0.5h-0.5c-0.1,0-0.2,0-0.4-0.1
		c-0.2,0-0.4-0.1-0.4-0.4c-0.8-0.1-1.3-0.2-1.4-0.2c-0.1-0.1-0.5-0.1-1-0.1h-0.8c-0.5,0-0.8,0-1.1,0.1c0-0.1-0.8-0.2-1.2-0.2h-1.2
		c-0.5,0-0.8,0-1.2-0.1l-0.1,0.1h-0.2c-0.4,0-0.7,0-0.8,0.1c-0.4-0.1-0.7-0.2-0.8-0.2c-0.1,0.1-0.5,0.1-1,0.1h-1.4
		c-0.1,0.1-0.5,0.2-1,0.2h-0.5c-0.4,0-0.5,0.1-0.6,0.2h-0.7c-0.6,0-1,0.1-1.1,0.2c-0.1-0.1-0.4-0.1-0.5-0.1c-0.5,0-1.6,0.5-2.2,0.5
		c-0.1,0-1,0.1-1.3,0.1s-0.5-0.1-0.5-0.2l-0.2,0.4h-0.5l-1.1,1c-0.6,0.6-0.8,1.4-0.8,2.6v0.8c0,0.6-1.1,3.7-1.1,4.3v1.1
		c0,0.5-0.1,3-0.1,4c0.1,0.1,0.1,0.4,0.1,0.7c-0.1,0.5-0.2,0.8-0.2,1c-0.1,0.1-0.1,0.4-0.1,0.7c0,0.5,0.2,1.8,0.2,2.2l0.1,0.4
		c0,0.4-0.1,1-0.2,1.8c0,0.4,0.1,0.6,0.1,0.7c0,0.5-0.1,2.3-0.1,3.2c0,0.1,0.2,0.4,0.2,0.5s0,0.4-0.1,0.5l-0.1,0.2l0.2,0.4
		c0,0.5,0.2,2.6,0.2,3.5v0.5c0,0.5,0.1,1.6,0.1,2c0,1.1,0.2,3.8,0.2,5.2c0,0.6,0.1,1.7,0.2,3.5c0.2,1.7,0.4,2.9,0.4,3.5
		c0,0.5,0.5,1.7,0.5,2.3c0,0.1,0.1,1.8,0.1,1.9c0,0.5,3.2,1,3.2,1.8c-0.5,0.2,0.2,3.1,0.4,4.4c-0.2,1-0.4,1.4-0.4,1.6
		c0,0.5,0.2,1.3,0.2,1.4c-0.1,0.5-0.7,1.1-1.1,1.6l-0.4,0.4c0,0.4-0.1,1.4-0.1,1.9c0,0.1,0.4,0.5,0.4,0.6c0,1-2.4,1.6-2.4,2.4
		l-2,0.6l-0.1-0.1c-0.1-0.1-0.1-0.1-0.2-0.1c-0.4,0-0.7,0-0.8-0.1c-0.4-0.4-0.7-0.6-1.1-0.7l-1-1.2l-0.6-1.3l-0.1,0.1h-0.2
		c0-0.1,0-0.1-0.1-0.2l-0.1-0.1c0-0.8-0.4-2.2-0.1-2.4l-0.1-0.4c0-0.4-0.4-1.3-0.4-1.9c-0.1-1.9-0.2-3.4-0.2-4.3
		c-0.1-0.7-0.1-1.8-0.1-3.4c0-1.3,0-2.4,0.1-3V465c0-0.4,0.4-1.3,0.4-1.8c0-0.1,0-0.2-0.1-0.5v-2.5c0-1.4-0.1-2.4-0.2-2.9
		c0-0.1,0-0.1,0.1-0.2l0.1-0.1c-0.1-0.1-0.1-0.5-0.1-0.8s0-0.6,0.1-0.8v-2.4c0-0.4,0.1-0.7,0.2-0.8c-0.1-0.4-0.2-0.6-0.2-1
		c0-0.5,0.2-1.8,0.2-2.3v-2.2c0-0.4,0.1-1.7,0.1-1.8l-0.1-0.2c-0.1-0.1-0.1-0.2-0.1-0.4s0.1-0.2,0.2-0.2v-2.5c0-0.1,0-0.2-0.1-0.5
		v-0.2c0-0.4,0.1-1,0.1-1.1v-2.8c0-0.8,0.1-2.3,0.1-2.9l0.1-0.4v-1.6c-0.1-0.1-0.1-0.7,0-1.1c0.2-0.7,0.2-1.1,0-1.8v-1.7l-0.1-0.1
		v-0.4c0.1-0.4,0.1-0.7,0.1-1c0-0.4-0.2-2.3-0.4-3.1c-0.4,0-1.4,0.5-1.6,0.5h-0.1c-0.1-0.1-0.2-0.1-0.4-0.1c-0.5,0-1.6,0.5-2,0.5
		c-0.1,0-0.2,0-0.4,0.1h-0.8c-0.2,0.2-0.7,0.4-1.3,0.4c-0.2,0.1-0.5,0.2-0.6,0.2c-0.4,0-0.6,0-0.7,0.1c-0.4,0-0.6,0.4-1,0.4
		c-1.8,0-2.8,0.1-3.1,0.4c-0.1,0-0.7,0.4-0.8,0.4c-0.1-0.1-0.2-0.1-0.6-0.1c-0.4,0-0.7,0.1-1,0.2c0,0.2-3.4,0.8-3.5,1
		c-0.4-0.4-1,0.1-1.3,0.1l-0.6,0.1c-0.1,0-0.2,0-0.4,0.1l-0.2,0.1c-0.6,0.1-1.3,0.1-2.4,0.1c-0.1,0.1-1.7,0.6-1.7,1.4
		c0.1,0.1,0.5,0.2,1.1,0.4c0.4,0.1,0.7,0.2,1.3,0.2c0.1,0.4,0.5,0.5,1.3,0.5l0.6,0.5h0.2c0.1,0.1,0.1,0.1,0.2,0.1
		c0,0.4-0.4,1-0.5,1.4c-0.5-0.1-1.7,0-2.3-0.4c-0.1,0-0.1,0.1-0.2,0.2l-0.1,0.1c-0.1-0.1-1.3-0.4-1.7-0.4H239c-0.5,0-0.8-0.1-1-0.2
		c-0.4,0-0.7,0.1-0.8,0.1c-0.1,0-0.2,0-0.4-0.1c-1,0.4-1.6,0.4-1.9,0c-0.2,0-0.4,0.1-0.4,0.2l-0.7-0.4l-0.4,0.4l-0.1,0.2
		c-0.1,0.2-0.1,0.4-0.1,0.5c-0.2,0.2-0.6,0.4-1,0.4c-0.5,0-1.9-0.6-2.4-0.7c-0.1-0.1-0.2-0.2-0.4-0.2c-0.1-0.1-0.5-0.1-1.2-0.1
		c-0.1-0.2-0.2-0.4-0.5-0.4l-0.2-0.2l-0.1-0.1c-1,0-1.3-0.8-1.8-1.3c0-0.2-0.1-0.6-0.5-1.1c-0.1-0.4-0.2-0.7-0.4-0.8s-0.2-0.8-0.6-1
		c0-0.4,0.5-0.2,0.6-0.4c0.4,0,0.5-0.4,0.6-0.4c0-0.8-1.3-0.6-1.4-1.1c0-0.4,0.5-0.7,0.5-0.8l1,0.4c0.4-0.2,0.6-0.5,0.6-0.7
		c0-0.4,0.1-0.6,0.5-0.7c0.1,0,0.1,0.4,0.5,0.5h0.5c0.6,0,1.6-0.4,2-0.4c0.2,0.2,0.5,0.4,0.7,0.4c0.6,0,0.8,0.1,1,0.2l1.7-0.6
		c0.1,0,0.8-0.1,1-0.1c0.2,0,0.4,0,0.5,0.1l0.1-0.1l0.2-0.2c0.1,0,0.4,0,0.5,0.1l0.1,0.1c0.2-0.1,0.8-0.4,1.8-0.6h0.7
		c0.4,0,0.7-0.1,0.8-0.4c0,0.4,0.5,0.2,0.5,0.4c0.2-0.2,0.5-0.4,0.6-0.4c0.1,0.1,0.4,0.1,0.6,0.1c0.5,0,0.8-0.1,1.2-0.2
		c0.1,0,0.2,0,0.2,0.1h0.1c0.5-0.2,0.8-0.4,1.1-0.4c0.1-0.1,0.2-0.1,0.6-0.1c0.1,0,0.2-0.1,0.2-0.2c0.4,0,0.6,0.1,0.7,0.4
		c0.2-0.2,0.8-0.4,1.7-0.4c0.1,0,3.6-1.1,3.7-1.1c0.4,0,1.1,0.1,1.2,0.1h1.3c0.1,0,1.2-0.4,2-0.7l0.6-0.1c0.4,0,0.5,0,0.6,0.1
		c0.1,0,1-0.4,1.4-0.4h0.6c0.1,0,0.2-0.1,0.4-0.4c0.1,0,0.6,0.1,0.7,0.1s0.2-0.1,0.4-0.2l0.8,0.2l0.1-0.1l0.6-0.4
		c0.5,0,1.2-0.4,1.6-0.4c0,0.1,0.1,0.1,0.5,0.2l0.4,0.1c0.4-0.1,0.7-0.6,1.2-1.6c0-0.4-0.1-0.6-0.2-0.7c0-0.1-0.6-0.2-0.6-0.6
		c-0.4,0-0.5,0.1-0.5,0.2l-0.2-0.4c-0.1-0.2-0.4-0.4-0.5-0.4c0-0.1-0.5-0.8-0.6-1c-0.4-0.4-0.5-0.6-0.5-0.8c0.4,0,0.7,0.5,1.2,0.5
		c0,0.2,0.7,0.4,1,0.6c0.6,0,1.2,0.2,1.9,0.8c0.1,0,0.1-0.1,0.1-0.2l0.1-0.2c0.2,0.1,0.5,0.1,0.8,0.1h0.6c0,0.1,0.1,0.6,0.4,1.3
		c0.1,0.1,0.4,0.1,0.7,0.1c0.4,0.4,0.6,0.6,0.7,0.6l0.4,0.6c0-0.1,0.1-0.2,0.5-0.4c0.1,0,0.1,0,0.2-0.1c0.1-0.1,0.2-0.2,0.4-0.2
		c0.1-0.1,0.4-0.1,0.6-0.1c0.1,0,1.1,0.1,1.2,0.1c0.2-0.2,0.5-0.4,0.7-0.4c0.4-0.1,0.6-0.2,0.8-0.2h0.6l0.4,0.1l0.2-0.1H275.1z
		 M257.1,411c-0.1-0.1-0.4-0.2-0.5-0.2l-0.4-0.1l-0.1-0.1c-0.1-0.1-0.1-0.2-0.2-0.2c0-0.2,0-0.4,0.1-0.4l0.1,0.1h0.2
		c0.1,0,0.2,0,0.4-0.1C256.8,410.1,257.1,410.5,257.1,411z M263.7,426.9c0,0.2-0.1,0.4-0.2,0.4L263.7,426.9z"/>
	<path class="st0" d="M287.1,446.3c0.8,0,1.4,0.6,2.3,0.6c0.2,0,0.4,0,0.5-0.1l1.2,0.4c0.7,0.2,1.2,0.5,1.4,0.8
		c1.3,1.4,2.3,2.5,2.2,4.7c0,0.4-0.1,1.8-0.1,2.3c0,0.1-0.2,0.5-0.6,1.1c0,0.1,0.1,0.6,0.1,0.7c0,0.1,0,0.2-0.1,0.4
		c-0.4,0-0.5,0.1-0.5,0.4c0,0.1,0,0.2,0.1,0.4c-0.5,0-1,0.7-1.3,1.2l-0.2,0.4c-0.1,0-0.5,0.2-1.1,0.6c-0.1,0.1-0.6,0.2-1.4,0.5
		c-0.1,0.1-1.6,1-2.4,1.3c-0.1,0-0.5-0.4-0.8-0.4c-0.5,0-1.6,0.7-2.5,0.7c-0.6,0.1-0.8,0.5-0.8,1.3c0,1.7,0.6,2.9,1.9,3.7
		c0.1,0.1,0.5,0.1,1,0.1c0.1,0,1.1,0.1,1.4,0.1c0.4,0,0.6-0.1,1-0.2c0.5-0.1,0.8-0.6,1.4-1c0.4,0,0.6,0,0.7-0.1
		c0.5-0.8,3.4-1.8,3.5-1.9l0.4-0.2l0.1,0.1h0.2c0.2-0.4,0.4-0.6,0.5-0.6l0.7-0.4c0.2,0,0.6-0.4,1-1.2c0.1-0.1,0.4-0.1,0.7-0.1
		l0.2-0.4l0.5-0.6c0.1,0,0.2,0.1,0.4,0.2c0.1-0.4,1.1-1.1,1.1-1.7c0.6-0.1,1.2-1,2.2-1.1c0,0.4,0.5,0.5,0.5,0.6
		c-0.1,0.6-1.9,2.6-1.9,3.2c-0.6,1-1.2,1.7-1.8,2.2c-0.1,0.1-0.4,0.1-0.7,0.1c-1.1,1.1-1.7,1.8-1.8,2.2c-0.5,0-1.2,0.4-1.6,0.4
		c-0.6,0.5-0.7,1.3-2,1.7c-0.2,0-0.4,0.7-0.4,1c-0.8,0-2.6,0.7-2.8,0.7c-1.1,1.1-1.8,1.7-2.2,1.7c-0.5,0-1-0.4-1.1-0.4
		c-0.2,0.2-0.5,0.4-0.6,0.4c-0.5,0-1.4-0.8-1.9-0.8c-0.1,0-0.2,0-0.4,0.1c-0.4-0.4-1.6-0.7-1.9-0.8c-0.7-0.7-1.3-1.4-1.7-2.2
		c-0.2-0.5-0.5-1.3-0.7-2.5l-0.2-0.5l-0.2-0.2v-1.3l-0.5-0.5l0.1-0.2c0.5,0-0.5-2,0-2.4c0-0.6-0.2-1.4-0.2-1.6
		c0-0.4,0.1-0.6,0.2-0.8c0.1-0.1,0.2-0.2,0.2-0.5v-0.5l0.1-0.4c0.6-0.8,1-1.9,1.2-3.5c2-1.6,3-2.9,3-4.1l0.6-0.4
		c1-0.6,1.9-1.2,2-1.6C285.2,447,286.8,446.7,287.1,446.3z M287.8,457.6c0.1,0,0.2,0,0.4-0.1l0.7-1.6c0.5-0.4,0.7-0.6,0.7-0.8
		c0.5-1.3,0.7-2.3,0.7-2.9c0-0.6-0.4-1.3-1-2.2c-1.2,0.5-1.4,0.6-2.6,0.2c-0.1,0-0.1,0-0.2,0.1l-0.1,0.2c-1.1,0.1-3,2.2-3.1,3.1
		c-0.4,0.2-0.5,0.7-0.5,1.3c0,0.5,0.1,1.8,0.1,2.3c0,0.6,0,1-0.1,1.2c0.7,0.2,1.2,0.4,1.4,0.4c0.4,0,0.8-0.1,1.3-0.4
		C286.5,457.9,287.2,457.6,287.8,457.6z M303.4,462.5c-0.4,0-0.2-0.5-0.1-0.6C303.9,462,303.9,462.5,303.4,462.5z"/>
	<path class="st0" d="M306.2,446.3c-0.2,0.6-0.4,1-0.4,1.3c0,0.1,0.1,0.4,0.2,0.5l-0.2,0.4c0,0.1,0.2,0.6,0.2,0.7v0.2
		c-0.1,0.1-0.1,0.2-0.1,0.4c0,0.4,0.1,0.6,0.4,0.6l-0.1,0.1c-0.1,0.1-0.1,0.1-0.1,0.2c0.1,0.4,0.4,0.4,0.4,0.5l-0.2,0.5
		c0,0.1,0.2,0.7,0.2,1.1l-0.1,0.2c-0.1,0.2-0.1,0.4-0.1,0.5s0.1,0.2,0.2,0.2c0.6,0,1.2-0.6,1.9-1.7c0.7-1.2,1.6-1.8,2.4-1.8
		c0.5-0.5,3.1-2,3.1-2.3c1.2,0,1.8,0.4,1.8,1.1c1.2,0,2.8,2.8,2.4,2.8H318c-0.4-0.4-1,0.6-1.6,0c-2.3,2.5-6.5,8-6.6,7.7l0.1,0.2
		l0.2,0.2c0,0.4-0.5,1-0.5,1.4c-0.6,0.2-0.5,0.8-0.7,0.8c0,0.1,0.5,1.9,0.5,2.3c0,1.8-0.4,3.1-1.2,4.2c0,0.5,0.5,0.7,0.5,1.1
		c0,0.1-0.1,1-0.1,1.3c0,0.4-0.5,1.2-1.6,2.4c-1,1.2-1.4,1.8-1.4,1.9c-0.8-0.1-1.2-0.7-1.2-1.8c0-0.1,0-0.2,0.1-0.4
		c-0.1,0-0.2,0.1-0.6,0.5c-0.1,0-1.2-1.1-1.2-1.2c0.4-0.2,0.5-0.4,0.5-0.5v-0.8L303,471c0.1-0.1,0.2-0.4,0.2-0.8
		c0-0.1-0.2-0.7-0.2-0.8c0.4-0.8,0.6-1.7,0.6-2.5c0-0.2-0.1-0.4-0.2-0.5c0-0.4,0.5-0.4,0.5-1c0-0.2,0.1-0.5,0.4-0.8
		c0-0.4-0.4-0.4-0.4-0.7c0.1,0,0.2-0.2,0.2-0.7v-0.5c0-0.4-0.4-1-0.4-1.1c0.1-0.1,0.1-0.2,0.1-0.6s-0.2-1.3-0.2-1.8
		c0-0.6,0.1-0.8,0.4-0.8c-0.1-1.3-0.7-2-0.7-2.6c0-0.2,0.1-0.4,0.2-0.5c0-0.4-0.4-1.4-0.4-1.6c0-0.6-0.1-1.6-0.5-2.9l0.1-0.1v-0.4
		c-0.5-0.4-0.6-0.4-0.4-0.8c-0.4,0-0.4-2.6-1.2-3.1c0-0.4-0.2-0.5-0.6-0.5c0.1-0.1,0.1-0.2,0.1-0.4s-0.4-0.7-0.5-1.6v-0.1
		c0.2-0.1,0.5-0.2,0.8-0.2c0.7-0.4,1.1-0.8,1.1-1.3c0.1,0,0.5,0.1,0.8,0.2l0.6,0.2c0.6,0.7,1.6,1.6,3,2.6L306.2,446.3z M315.7,470.9
		c0.5,0,0.5,0.7,0,0.7V470.9z"/>
	<path class="st0" d="M325.8,446.3c-0.2,0.6-0.4,1-0.4,1.3c0,0.1,0.1,0.4,0.2,0.5l-0.2,0.4c0,0.1,0.2,0.6,0.2,0.7v0.2
		c-0.1,0.1-0.1,0.2-0.1,0.4c0,0.4,0.1,0.6,0.4,0.6l-0.1,0.1c-0.1,0.1-0.1,0.1-0.1,0.2c0.1,0.4,0.4,0.4,0.4,0.5l-0.2,0.5
		c0,0.1,0.2,0.7,0.2,1.1l-0.1,0.2c-0.1,0.2-0.1,0.4-0.1,0.5s0.1,0.2,0.2,0.2c0.6,0,1.2-0.6,1.9-1.7c0.7-1.2,1.6-1.8,2.4-1.8
		c0.5-0.5,3.1-2,3.1-2.3c1.2,0,1.8,0.4,1.8,1.1c1.2,0,2.8,2.8,2.4,2.8h-0.1c-0.4-0.4-1,0.6-1.6,0c-2.3,2.5-6.5,8-6.6,7.7l0.1,0.2
		l0.2,0.2c0,0.4-0.5,1-0.5,1.4c-0.6,0.2-0.5,0.8-0.7,0.8c0,0.1,0.5,1.9,0.5,2.3c0,1.8-0.4,3.1-1.2,4.2c0,0.5,0.5,0.7,0.5,1.1
		c0,0.1-0.1,1-0.1,1.3c0,0.4-0.5,1.2-1.6,2.4c-1,1.2-1.4,1.8-1.4,1.9c-0.8-0.1-1.2-0.7-1.2-1.8c0-0.1,0-0.2,0.1-0.4
		c-0.1,0-0.2,0.1-0.6,0.5c-0.1,0-1.2-1.1-1.2-1.2c0.4-0.2,0.5-0.4,0.5-0.5v-0.8l-0.2-0.2c0.1-0.1,0.2-0.4,0.2-0.8
		c0-0.1-0.2-0.7-0.2-0.8c0.4-0.8,0.6-1.7,0.6-2.5c0-0.2-0.1-0.4-0.2-0.5c0-0.4,0.5-0.4,0.5-1c0-0.2,0.1-0.5,0.4-0.8
		c0-0.4-0.4-0.4-0.4-0.7c0.1,0,0.2-0.2,0.2-0.7v-0.5c0-0.4-0.4-1-0.4-1.1c0.1-0.1,0.1-0.2,0.1-0.6s-0.2-1.3-0.2-1.8
		c0-0.6,0.1-0.8,0.4-0.8c-0.1-1.3-0.7-2-0.7-2.6c0-0.2,0.1-0.4,0.2-0.5c0-0.4-0.4-1.4-0.4-1.6c0-0.6-0.1-1.6-0.5-2.9l0.1-0.1v-0.4
		c-0.5-0.4-0.6-0.4-0.4-0.8c-0.4,0-0.4-2.6-1.2-3.1c0-0.4-0.2-0.5-0.6-0.5c0.1-0.1,0.1-0.2,0.1-0.4s-0.4-0.7-0.5-1.6v-0.1
		c0.2-0.1,0.5-0.2,0.8-0.2c0.7-0.4,1.1-0.8,1.1-1.3c0.1,0,0.5,0.1,0.8,0.2l0.6,0.2c0.6,0.7,1.6,1.6,3,2.6L325.8,446.3z M335.2,470.9
		c0.5,0,0.5,0.7,0,0.7V470.9z"/>
	<path class="st0" d="M360.9,466.3c0-0.2,0-0.5-0.1-0.7c-0.4-0.4-1.1-2.4-1.1-2.8c0-0.1,0.1-0.7,0.1-0.8s0-0.2-0.1-0.4
		c-0.2-1.1-0.5-1.7-0.8-1.7c-0.6,0-0.8,0.2-0.8,0.6c0,0.1,0.2,0.4,0.2,0.5c-1,0-0.6,0.5-1,1.4l-0.4,0.1l0.2,0.4
		c-0.4,0.7-0.8,1.4-1.3,2l-0.4,0.4c0,0.1-0.1,0.5-0.4,1.1l-0.4,0.1c-0.1,0.5-0.5,0.8-1.1,1.1c-0.8,1.7-1.9,2.6-3.2,2.8h-0.7
		c0,0.2-0.1,0.4-0.4,0.4l-0.5-0.6c-0.6,0-1.6-0.2-3.1-0.8c-0.5-0.5-0.7-0.7-0.8-0.7c-0.2-0.2-1.2-0.7-1.7-1
		c-1.1-0.8-1.8-2.3-2.2-4.1c-0.1-0.4-0.2-0.6-0.2-0.8c0-0.1,0.1-0.6,0.2-1.2c-0.6-1.3-0.8-2.6-0.8-4c0-1,0.1-1.7,0.5-2.3
		c0-0.1-0.4-0.5-0.5-0.8l-0.1-0.1c0.1,0,0.7,0.1,0.8,0.1l0.5-0.4c0-0.1-0.7-0.8-0.7-1.3c0.1,0,0.8-0.1,1-0.1c0.4,0,0.6,0.1,0.7,0.5
		c0.1-0.4,1.8-1.9,1.8-2.9c0.1-0.1,1.6-0.4,2.5-1c1.6-1.1,2.5-1.6,3.1-1.6c0.1,0,0.6,0.1,0.7,0.1c1.3-0.6,2.4-0.8,3.1-0.8
		c0.5,0,1.6,0.4,2.2,0.4c0.8-0.4,2-1.7,2.9-2c2.3,0.8,3.7,1.6,4.6,2.2c0,0.5,0.4,2.4,0.4,3c0,0.5-0.1,0.8-0.4,1.2
		c0.1,0.2,0.2,0.7,0.2,1.4c0,0.8-0.2,2.9-0.2,3.4c0,0.4,0,0.6,0.1,0.7v2.4c0,0.4,0,0.7,0.1,1c-0.1,0.1-0.2,0.4-0.2,0.5
		s0.2,0.2,0.6,0.4c-0.1,0.1-0.2,0.5-0.2,0.8c0,0.4,0,0.5,0.1,0.6c0.8,2.4,1.3,3.6,1.4,3.7c0,0.6,1.1,0.6,1.2,1.4
		c0.2,0.1,0.5,0.2,0.8,0.2c0.2,0,0.4,0.2,0.5,0.7c0,0.5-0.4,0.8-1.1,1.1c-0.8-0.2-1.6-0.2-3.5-0.7
		C362.1,469.1,361.5,466.9,360.9,466.3z M351.6,450.7c-0.2,0.7-0.6,1.2-1.1,1.4l-0.7,0.4c0.1,0.1,0.1,0.2,0.1,0.5
		c0,0.4-0.7,0.7-0.8,0.8c0,0.6,1.1,1.3,1.1,1.9c-0.4,0-0.8-0.4-1-0.4s-0.4,0.1-0.5,0.2c0,0.8-0.1,1.3-0.4,1.4
		c-0.7,0.8-1.6,2.2-2.5,4.1l1.1,4c0.1,0,0.5,0.1,1,0.4c0.6,0.1,1,0.5,1.1,0.5h0.1c0.1-0.1,0.2-0.1,0.4-0.1s0.4-0.1,0.6-0.4
		c0.2-0.1,0.5-0.1,0.8-0.1c0.5-1,1-1.8,2-1.8c0.1-0.8,1.6-2.3,1.6-2.8c0.2-1.4,0.8-2.5,1.7-3.4c-0.1-0.1-0.1-0.2-0.1-0.6
		c0-0.1,0-0.2-0.1-0.4c0.6-0.1,0.7-1.3,1.3-1.4c-0.5-0.5,0.4-1.9,0.6-2.6c0-0.4-0.1-0.6-0.4-0.7c-0.6,0-3-1.3-3.4-1.3
		C353.6,450.5,352,450.4,351.6,450.7z"/>
	<path class="st0" d="M374.1,446.3c-0.2,0.6-0.4,1-0.4,1.3c0,0.1,0.1,0.4,0.2,0.5l-0.2,0.4c0,0.1,0.2,0.6,0.2,0.7v0.2
		c-0.1,0.1-0.1,0.2-0.1,0.4c0,0.4,0.1,0.6,0.4,0.6l-0.1,0.1c-0.1,0.1-0.1,0.1-0.1,0.2c0.1,0.4,0.4,0.4,0.4,0.5l-0.2,0.5
		c0,0.1,0.2,0.7,0.2,1.1l-0.1,0.2c-0.1,0.2-0.1,0.4-0.1,0.5s0.1,0.2,0.2,0.2c0.6,0,1.2-0.6,1.9-1.7c0.7-1.2,1.6-1.8,2.4-1.8
		c0.5-0.5,3.1-2,3.1-2.3c1.2,0,1.8,0.4,1.8,1.1c1.2,0,2.8,2.8,2.4,2.8h-0.1c-0.4-0.4-1,0.6-1.6,0c-2.3,2.5-6.5,8-6.6,7.7l0.1,0.2
		l0.2,0.2c0,0.4-0.5,1-0.5,1.4c-0.6,0.2-0.5,0.8-0.7,0.8c0,0.1,0.5,1.9,0.5,2.3c0,1.8-0.4,3.1-1.2,4.2c0,0.5,0.5,0.7,0.5,1.1
		c0,0.1-0.1,1-0.1,1.3c0,0.4-0.5,1.2-1.6,2.4c-1,1.2-1.4,1.8-1.4,1.9c-0.8-0.1-1.2-0.7-1.2-1.8c0-0.1,0-0.2,0.1-0.4
		c-0.1,0-0.2,0.1-0.6,0.5c-0.1,0-1.2-1.1-1.2-1.2c0.4-0.2,0.5-0.4,0.5-0.5v-0.8l-0.2-0.2c0.1-0.1,0.2-0.4,0.2-0.8
		c0-0.1-0.2-0.7-0.2-0.8c0.4-0.8,0.6-1.7,0.6-2.5c0-0.2-0.1-0.4-0.2-0.5c0-0.4,0.5-0.4,0.5-1c0-0.2,0.1-0.5,0.4-0.8
		c0-0.4-0.4-0.4-0.4-0.7c0.1,0,0.2-0.2,0.2-0.7v-0.5c0-0.4-0.4-1-0.4-1.1c0.1-0.1,0.1-0.2,0.1-0.6s-0.2-1.3-0.2-1.8
		c0-0.6,0.1-0.8,0.4-0.8c-0.1-1.3-0.7-2-0.7-2.6c0-0.2,0.1-0.4,0.2-0.5c0-0.4-0.4-1.4-0.4-1.6c0-0.6-0.1-1.6-0.5-2.9l0.1-0.1v-0.4
		c-0.5-0.4-0.6-0.4-0.4-0.8c-0.4,0-0.4-2.6-1.2-3.1c0-0.4-0.2-0.5-0.6-0.5c0.1-0.1,0.1-0.2,0.1-0.4s-0.4-0.7-0.5-1.6v-0.1
		c0.2-0.1,0.5-0.2,0.8-0.2c0.7-0.4,1.1-0.8,1.1-1.3c0.1,0,0.5,0.1,0.8,0.2l0.6,0.2c0.6,0.7,1.6,1.6,3,2.6L374.1,446.3z M383.6,470.9
		c0.5,0,0.5,0.7,0,0.7V470.9z"/>
	<path class="st0" d="M388.3,435c0.2,0,0.4-0.1,0.5-0.2c0.6,0.4,0.6,0.4,1,0h0.5c0.2,0,0.4,0,0.5-0.1c0.2,0.2,0.8,0.4,1.8,0.4
		c0.2,0,0.4,0,0.5-0.1l0.1,0.1h0.5l0.5,0.5c0.8,0.6,2,1.7,2,2.2c0,0.1,0.1,0.7,0.1,1.2c0.2,0.2,0.4,0.5,0.4,0.6
		c0,0.6-0.8,0.8-0.8,1.2c-0.1-0.1-0.2-0.1-0.4-0.1s-0.5,0.2-0.8,0.2c0,0.5-0.5,0.7-1.4,0.7c-0.1,0-0.6-0.2-0.7-0.2h-0.1
		c-0.1,0.1-0.1,0.1-0.2,0.1c-0.4,0-1.2-0.5-1.7-0.5c0-0.4-0.7-0.4-0.8-0.5c0-0.2-0.2-0.4-0.6-0.4c-0.1-0.1-0.2-0.4-0.2-0.7
		c0-0.4-0.8-1-0.8-1.3c-0.2,0-0.5-0.1-0.6-0.5l-0.4-0.7c0.6-0.6,1-1.2,1-1.7C387.8,435,387.9,435,388.3,435z M396,449.9l0.1,0.1
		c0,0.1-0.1,0.2-0.4,0.4v0.2l0.1,0.2l-0.1,0.1v0.2l0.2,0.1c0.1,0.1,0.1,0.2,0.1,0.4L395,453c0.8,0.4,0.2,1.9,0.2,1.9l0.1,0.2l-0.4,1
		v0.5c0.1,0.4,0.1,0.6,0.1,0.7c0,0.4-0.1,0.6-0.2,1c0.1,0.1,0.2,0.4,0.2,0.5l-0.2,0.5c0,0.1,0.1,0.4,0.4,0.5l0.5,1.7
		c0.6,0.4,0.8,0.8,0.8,1.3c0,0.1-0.1,0.8-0.1,1.2v0.1c0.1,0.1,0.1,0.2,0.1,0.4c0,1.3-0.6,2.8-1.9,4.6c0.1,0.1,0.1,0.2,0.1,0.4
		s-0.4,0.8-0.5,1.4l-0.1,0.4c-0.6,0-1,0.4-1.9,0.4c-1.4,0-2.2-1.3-2.3-2.9l-0.1-1.2h-0.5l0.5-0.2c0-0.2-0.1-0.4-0.4-0.4
		c0.6-3.4,1-5,1.1-5.2c-0.2-0.2-0.4-0.5-0.4-0.7v-0.6l0.1-0.4c0.1-0.5,0-1.7,0.4-2.2c0-0.1,0-0.2-0.1-0.5l-0.1-0.2
		c0.1-0.5,0.1-1,0.1-1.3c0-0.1,0-0.2-0.1-0.4v-0.2c0-0.1,0.1-0.4,0.2-0.5c0-0.1-0.2-0.2-0.2-0.6c0-0.1,0-0.2-0.1-0.4l-0.1-0.4v-0.5
		l0.1-0.2c0-0.4-0.2-1-0.2-1.1c0-0.7,0.2-1.2-0.1-2c0.5-1,1.2-1.6,2-1.8c1,0,2.2,1.8,3,1.9l0.2-0.2c0.2-0.1,0.4-0.2,0.5-0.2
		s0.2,0.1,0.2,0.4V449.9z"/>
	<path class="st0" d="M422.4,450.1c0,0.1,0,0.1-0.1,0.2l-0.1,0.1l0.1,0.6c0.1,0.8,0.4,2,0.4,3.1l-0.1,0.8v1.4c0,0.7,0.1,1.1,0.2,1.2
		c-0.6,0.7-0.8,1.7-0.8,3v0.8c0,3.4,0.6,5,1.8,5c0.1,0.1,0.4,0.1,0.7,0.1c1.6,0,2.5-0.4,2.8-1c0.4,0,0.6,0.1,0.7,0.1
		c0.5,0,1.9-1,2.5-1c0.4,0,0.6,0.1,0.6,0.4c0,0.8-0.8,1.6-2.5,2.2c-1,1.4-2,2.2-3.2,2.2c0.2,0-0.6,0.7-1.3,1c-0.6,0-1,0.1-1.2,0.4
		c-0.1-0.1-0.5-0.4-1.2-0.6l-0.1-0.1h-0.8l-0.7-0.1v0.2l0.1,0.2c-0.2,0-0.4-0.4-0.4-1.2v-0.5l-0.2-0.1c-0.2-0.1-0.4-0.2-0.4-0.4
		c0-2.6-1-5.4-1.1-5.5c0.1,0,0.2-0.1,0.2-0.5c0-0.4-0.1-0.6-0.4-0.6c-0.1,0.1-0.2,0.2-0.2,0.4l0.1,0.2v0.2c-1,0.5-0.7,0.5-0.7,0.8
		l0.1,0.2c-0.6,1.1-1.2,1.8-1.7,1.9c0.1,0.1,0.2,0.2,0.2,0.6c-0.4,0.1-1.1,1.1-1.6,1.4c0,1-1.3,2.3-1.4,2.3c-0.6,0-1.4,1-2.5,2.9
		c-0.6,0-2-1-2.5-1c-1.1,0-2.2,0.2-2.2,0.5c-0.6-1.1-0.8-1.9-0.8-2.4c0-0.1-0.1-0.1-0.4-0.1c0-0.6-0.5-2.8-0.5-3.7
		c0-0.4,0.1-1.6,0.1-2.2c0-0.5,0.2-1.2,0.2-1.7c-0.1-0.1-0.4-0.1-0.5-0.5l0.1-0.4c0.2-0.5,0-0.5,0-0.8l0.5-0.5
		c-0.4-1-0.5-1.6-0.5-1.9c0-0.7,0.6-1,0.1-2.4c0.4,0,0.2-0.5,0.4-0.6v-1.6c0-0.7,0-1.3,0.1-1.8c0-0.4,0.1-0.8,0.1-1v-0.2
		c-0.1-0.1-0.1-0.1-0.1-0.2c1.8-0.8,2.6-1.3,2.8-1.4c0.4,0.4,1.3,0.6,1.3,0.8v0.5c0,0.5,1.4,1.1,1.4,1.7l-0.1,0.4
		c-0.4,0.5-0.5,1.2-0.5,1.8l0.1,0.4c0,0.1-0.1,0.1-0.4,0.1v0.5c0,0.1,0,0.2,0.1,0.4c-0.1,1-0.2,1.7-0.2,2.2c0.1,0.4,0.1,0.8,0.1,1.3
		c-0.2,0.1-0.4,0.2-0.4,0.5c0,0.1,0.1,0.4,0.2,0.8c-0.2,0-0.4,0.1-0.4,0.5c-0.6,0,0.1,1.7,0.1,3.1c0,0.5-0.1,0.7-0.5,0.7
		c0.2,0.4,0.4,1,0.4,1.6c0,0.4,0.4,0.5,1.1,0.5c0.1,0,0.4-0.4,0.5-0.4l0.6-0.1c0.5-0.1,0.7-0.1,0.8-0.1c0-0.8,1-2.2,1.8-2.3
		c0-0.4,0.2-0.8,0.8-1.4c1.1-1.1,0.6-2.3,1.6-2.3c-0.1-0.1-0.1-0.4-0.1-0.5l-0.1-0.8v-1.3c0-0.7,0.1-1.1,0.2-1.1l-0.1-0.4
		c0-1.8,0.5-2.8,0.8-3.1l0.2-0.2v-0.2l-0.1-0.2c0.6-0.6,0.5-2,0.8-2.4v-0.2l-0.1-0.2c0-0.6,0.2-0.8,0.8-0.8c0.1,0,0.4,0,0.6,0.1
		l0.4,0.1c0.8-0.6,1.2-1.1,1.3-1.4C421.2,447.9,421.4,450.1,422.4,450.1z"/>
	<path class="st0" d="M450.4,457.1c0-0.1-0.6-0.4-0.6-0.7c0-0.1,0.1-0.1,0.4-0.2h0.2V456c-0.1-0.1-0.1-0.1-0.1-0.2
		c0-0.6,1.4-1.9,1.4-2.4l0.4-0.5c-0.1-0.1-0.2-0.4-0.2-0.6c0-0.4,0.5-1.4,0.5-1.9c-0.1-0.1-0.2-0.2-0.2-0.6c0.4-0.8,0.7-1.3,1-1.4
		c0-0.4,0.6-0.4,0.7-0.7c0.7,0,1.1,0.2,1.1,0.8l1.8-0.2c0.5,0,1.1,0.6,1.4,1.1l0.2,0.4c0.1,0.8,0.1,1.6,0,1.7c0,0.1,0.2,0.4,0.2,0.5
		l-0.1,0.1c-0.1,0.1-0.1,0.1-0.1,0.2c0.8,1.3,1.3,2.5,1.3,3.6c0,1.1-0.6,2.8-0.6,3.1c0,0.1-0.1,0.2-0.2,0.4l0.2,0.2
		c0.4,0.4,0.2,0.4,0.1,0.7l-0.1,0.1c0,1.1,0.4,2.4,1.2,4c0,0.2-0.4,0.1-0.4,0.4c0.1,0.1,0.4,0.6,0.7,1.7c0.1,0.4,0.1,0.5,0.1,0.4
		c0.2,0.2,0.4,0.7,0.4,1.6c0,0.4,1.3,0.2,1.3,0.7c0.2,1.2,0.1,1.1-1.1,2.4c-1.4,0-3-0.2-3.1-0.2c-0.6,0-3.2-2.6-3.2-3.2
		c0-0.2,0-0.5,0.1-0.6c0-2.3-0.1-3.6-0.4-3.7c0-0.1-0.2-0.7-0.2-1.2c-0.1-0.1-0.1-2.5,0-2.6v-0.5l0.1-0.1c0-0.1-0.7-0.6-0.8-0.6
		c-0.2,0-0.4,0-0.4,0.1c0,0.2,0.1,0.5,0.4,0.7c-0.2,0.4-1,0.8-2,1.2c0.2,0.1,0.4,0.2,0.4,0.4c0,0.5-0.8,1.8-1.3,1.8
		c0,0.4,0.2,0.5,0.2,0.6c-0.4,0.1-0.5,0.6-0.5,1.4v0.6c0,0.1,0.1,0.2,0.2,0.2c0.1,0.1,0.1,0.1,0.1,0.2h-0.5c-0.5,0-1.3,1-1.7,1
		c0,0.5-0.4,1.1-0.4,1.2c-0.6,0.6-1.1-0.2-2-0.2c0-0.1-0.4,0-0.4-0.4c-1.6,0-1.8-1.4-2.3-1.9v-0.4l0.1-0.2c0-0.1,0-0.2-0.1-0.4v-0.1
		c0-0.1,0.1-0.6,0.1-0.7c-0.4-0.4-0.5-0.8-0.5-1.7c0-1.1,0.6-3.7,0.6-4.2l0.2-0.2c-1-1-0.2-1.6-1.3-1.6c-0.1,0.1-0.1,0.4-0.2,0.6
		v0.5c0,0.1,0,0.1-0.1,0.2l-0.1,0.1c0,0.1,0.1,0.2,0.2,0.4c-0.4,0.7-0.7,1.2-1.1,1.3c0.1,0.4,0.2,0.6,0.2,0.7l-0.7,1.6l0.2,0.5
		c-0.4,0.8-0.6,1.7-0.6,2.3c0,0.1,0.1,0.7,0.1,1.1c0,0.6-0.2,1.1-0.6,1.2c0,0.1,0,0.1,0.1,0.2v0.2c0,0.4-0.4,1-0.4,1.1l0.1,0.1v0.5
		c0,2-1.1,4.7-3.1,4.7c0.1,0.1,0.1,0.4,0.1,0.7c-0.5,0.1-0.7,0.4-1.1,0.4c-2.2,0.7-3.4-2.8-4.3-4.2c0-0.1,0.1-0.5,0.1-0.8
		c0-0.2-0.1-1.6-0.1-1.9l-0.1-0.2l0.1-0.2v-0.5c-0.4,0-0.5-0.2-0.5-0.6l0.4-0.4c0-0.1-0.1-0.6-0.1-0.7c0-0.2,0.1-0.4,0.2-0.5
		c-0.1,0-0.2-0.1-0.2-0.2v-0.2l0.1-0.2l-0.2-0.2c-0.5-0.5-0.1-0.6-0.1-0.8c-0.4-1.3-0.4-1.6,0-2.2c0-0.4-0.1-0.8-0.1-1.3v-1.2
		c0-0.1,0-0.1,0.1-0.2v-0.2v-0.2c-0.1-0.2-0.1-0.4-0.1-0.5l0.1-0.1v-0.2c0-0.1-0.1-0.4-0.2-0.5c0-0.1,0.1-0.2,0.1-0.6
		c0-0.1-0.1-0.4-0.1-0.5l0.2-0.4c0-0.1,0-0.1-0.1-0.1L431,454v-0.6c0-0.1,0.2-0.2,0.2-0.6c-0.1-0.5-0.2-1.1-0.2-1.8l0.1-0.4
		c0-1.4-0.1-2.5-0.5-3.1c0.1-0.1,0.5-1.4,1.3-1.8c1.1,0,2,0,2.8,0.1l1.1,0.2c0,0.5,1.3,1.6,1.3,1.9c0,0.1,0.4,1.6,0.4,2.9
		c-0.2,0-0.4,0-0.5,0.1c0,0.4-0.2,0.5-0.6,0.6l0.1,0.1l0.2,0.1c0,0.2-0.2,0.4-0.7,0.4c0.1,0.1,0.1,0.4,0.1,0.7
		c-0.2,1.9-0.2,2.9,0,7.3c0,1.2,0,1.9-0.1,2v0.2v0.5c0,0.2-0.1,0.4-0.2,0.4c0.1,0.1,0.2,0.4,0.2,0.7c-0.1,0-0.2,0.1-0.2,0.2
		c0,0.2,0,0.4-0.1,0.4c0.1,0.1,0.2,0.2,0.2,0.4c-0.5,1.3-0.6,1-0.2,2c0.2,0,0.5-0.4,0.8-1.2l0.5-1.2c0-0.4-0.1-0.5-0.1-0.6
		c0.4-1,0.6-1.7,0.6-2v-0.5c0.5,0,0.7-0.7,1-1l-0.2-0.1c-0.1-0.1-0.1-0.1-0.1-0.2v-0.6c0.4,0,0.5-0.1,0.5-0.5c0-0.1-0.1-0.4-0.1-0.5
		c0.4,0,0.5-0.4,0.5-1c0-0.1,0-0.2-0.1-0.4c0.1,0,0.2-0.2,0.2-0.6c0-0.4,0.1-0.5,0.5-0.6l-0.4-0.2c0-0.1,0.1-0.2,0.4-0.4
		c-0.4-0.1-0.6-0.5-0.6-0.8c0-0.2,0.1-0.4,0.2-0.4c0,0,0,0,0,0.1l-0.1,0.2c0,0.1,0.1,0.2,0.5,0.2c0-0.7,0.2-1.3,0.7-1.8
		c-0.2-0.2-0.4-0.6-0.4-1c0.4-0.4,0.4-1.6,1.1-1.6c-0.1-0.1-0.1-0.2-0.1-0.6c0.4-0.6,0.8-1,1.4-1l-0.1,0.4c0,0,0,0,0.1,0l0.2-0.1
		c0.4,0,1.3,0.7,1.8,0.7c0.2,0.5,2.6,1,2.6,1.2c0.4,0,0.5,1,1,1.3c0.1,0.1,0.2,0.4,0.2,0.7c0,1.2,1.2,3.2,1.3,3.2
		c-0.1,0.1-0.1,0.2-0.1,0.5c0,0.1,0.1,0.7,0.1,1.1C449.9,458.1,450.3,457.2,450.4,457.1z"/>
</g>
<g id="T_text">
	<path class="st0" d="M228.9,253.6c-0.4,0.3-0.6,0.8-0.6,1.4h-1.2C227.4,254.7,228,254.3,228.9,253.6z M360.4,250.7
		c-0.3,0.1-0.8,0.1-1.7,0l-0.5-0.6c-0.1,0.3,0,1.3,0.4,2.9c-0.4,0.4-0.7,1-0.7,1.8c-0.5-0.1-1.1,0.3-1.8,1c0-0.2-0.1-0.5-0.4-1
		s-0.3-0.9-0.3-1.2c-0.4-0.3-1.1-1-2-1.8c-0.1,0.3-0.3,0.7-0.5,1.4c0.4,0.1,1,0.3,1.7,0.7c-0.3,0.2-0.4,0.7-0.5,1.6
		c-0.6-0.6-1.1-0.9-1.6-0.9c-0.3,0-0.3,0.1-0.2,0.3c0.1,0.2,0,0.3-0.3,0.3c-0.3,0-0.4-0.1-0.5-0.3c0-0.2-0.2-0.3-0.5-0.3
		c-0.5,0-0.9,0.1-1.2,0.3c-0.2-1.1-0.7-1.7-1.6-1.7l-2.1,1l-0.7-0.6c-0.2,0.2-0.3,0.4-0.4,0.6c0.2-0.9-0.2-1.3-1-1.3
		c-1.5,0-2.4,0.3-2.9,0.9c-0.3-0.2-0.3-0.7-0.3-1.7c-0.3-0.4-0.7-0.6-1.2-0.6c-0.5,0-0.6,0.2-0.1,0.6c-0.6-0.3-1.4-0.3-2.3,0
		c0-0.3,0.3,0.1,0.9,1.4c0-0.1-0.4-0.1-1.3-0.1V252c-0.1-0.2-0.3-0.3-0.8-0.3c-0.3,0-0.9,0.3-2,1H334c-0.3,0-0.6,0.1-0.6,0.3
		c-0.1,0.2-0.3,0.3-0.5,0.3c-0.3,0-0.7-0.2-0.9-0.5c-0.3-0.3-0.5-0.5-0.8-0.5c-0.3,0-0.6,0-0.7,0.1c-0.1,0.1-0.2,0.1-0.3,0.1
		c0.4-0.3,1.8-0.6,4-1c-0.9-0.1-2.2-0.4-3.9-0.9c-0.1,0.3-0.2,0.5-0.5,0.8c-0.2,0.3-0.5,0.5-0.8,0.5c-0.3,0-0.3-0.1-0.1-0.3
		c0.2-0.2,0.1-0.3-0.3-0.3c-0.3,0-0.4,0.1-0.4,0.3c0,0.1-0.1,0.1-0.4,0.1c0.4,0-0.4-0.3-2.5-1c0,0.8,0.3,1.3,0.8,1.6
		c-0.5,0.5-1.1,0.8-1.7,0.8v-1c-0.2-0.2-0.4-0.3-0.8-0.3c-0.6,0-1,0.3-1,0.9c-0.3-0.2-0.7-0.3-1.1-0.5c-0.4-0.2-0.6-0.7-0.7-1.4
		c-0.9,1-1.3,1.9-1.4,2.7c-0.5-0.3-1.5-0.2-2.9,0.3l0.3-1.7c0.1-0.6,0-0.9-0.4-0.9c-0.5,0-1,0.3-1.5,0.8c-0.5,0.5-0.7,1-0.7,1.3
		c0-0.2,0.1-0.6,0.3-1.2c0.2-0.6,0.2-1.2,0.1-1.6c-1,1.6-1.8,2.5-2.2,2.5c-0.3,0-0.4-0.1-0.3-0.2c0-0.1-0.1-0.2-0.3-0.2
		c-0.3,0-0.5,0.1-0.5,0.4c0,0.2,0,0.3,0,0.5c-1,0.1-1.9,0.1-2.7,0.1c-1.3,0.3-2.2,0.7-2.7,1.3c0-0.7-0.1-1.1-0.3-1.3l-0.9,0.9
		c-0.3-0.3-0.7-1.2-1.2-2.6c-0.2,0.2-0.2,0.5-0.1,1.1c0.1,0.6,0,0.8-0.3,0.8c-0.3,0-0.5,0-0.5-0.1c0.1-0.3,0.1-0.4,0-0.5l-0.8,0.6
		c-0.5-0.5-1-0.6-1.4-0.4c0,0.4,0.1,0.7,0.3,0.8c0.2,0.1,0.3,0.1,0.5,0.1c0,0.3-0.1,0.5-0.3,0.8c-0.2,0.3-0.4,0.4-0.5,0.4
		c-0.3,0-0.4,0-0.4-0.1c0-0.1-0.2-0.1-0.5-0.1c-0.7,0-2.6,0.8-5.7,2.3c-0.3-0.3-0.4-0.2-0.5,0.1c-0.4,3-0.6,5.2-0.4,6.4
		c-0.1,0-0.3,0.1-0.5,0.4c0,0.8,0.2,2.2,0.5,4.3c0,0.2-0.1,0.7-0.4,1.7c0.3,0.3,0.3,1,0,2.1c0,1.2-0.1,3-0.3,5.5
		c-0.4,0.1-0.9,0.3-1.4,0.6c-0.1,0.4,0,1.2,0.4,2.3l-0.3,0.6l-0.9,0.8c0-1,0-1.4,0.1-1.3c-0.2,0.2-0.5,0.5-1,1
		c-0.3,0.2-0.3,0.6-0.1,1.3c1-0.4,1.6-0.6,2-0.6c-0.3,0.9-0.5,2.1-0.7,3.8c0.7,0.6,1.6,1.5,2.7,2.7c-0.1,0.2-0.6,1.7-1.6,4.5v-1.3
		c-1,0.3-1.5,1.1-1.6,2.2c-0.3,2.9-0.5,4.6-0.5,5.1c0,0.3,0.3,1.2,0.9,2.6c-0.5,1.7-0.6,3.5-0.4,5.2c-0.3-0.3-0.7-0.4-0.9-0.3
		c1,0.4,1.1,1.8,0.4,4.2c0,0.1,0.2,0.4,0.5,0.9c-0.3,0.8-0.3,1.9-0.1,3.4c0.6,0.8,0.9,1.1,0.9,1c0,0.1-0.1,0.7-0.3,1.9
		c-0.2,0.9-0.2,1.6,0,2.1l0.8,3c-0.3,1.3-0.3,2.1-0.3,2.3l1.3,5.7c-0.2,0.4-0.2,1.1-0.1,1.9c1.1,2.9,3,7.1,5.7,12.9
		c0.1,0.3,0.1,0.8,0.1,1.3c0.3,0.2,0.7,0.6,1.2,1.2c-0.5,0.2-1.3,0.3-2.2,0.5c-1,0.1-1.7,0.3-2.2,0.6c0.3-0.4,0.4-0.7,0.4-0.9
		c0.3,0.2,0.5,0.1,0.5-0.1c0-0.3-0.2-0.6-0.5-0.9c-0.4,0.5-1.3,1.4-2.6,2.6c-0.1-0.6-0.4-1.6-1-3l-0.6,0.6c-1-0.6-2.3-1.6-3.8-2.9
		c-0.3-0.6-0.9-1.6-1.7-2.9c-0.3,0-0.5,0.3-0.5,0.8c-0.3-1.6-1.2-3.4-2.9-5.6c0.3-0.3,0.5-0.6,0.5-1c0-1.1-0.7-1.9-2.1-2.3
		c0-0.4-0.3-1.2-0.8-2.2s-0.8-2-0.8-2.7c-1.5-2-2.7-4.4-3.8-7.2c-0.6-0.6-1.3-1.5-2.1-2.6c-0.1-0.6-0.2-1.4-0.3-2.3
		c-0.1-0.1-0.3-0.3-0.6-0.6c-0.3-0.3-0.6-0.5-0.8-0.5c0.3,0,0.6-0.1,0.9-0.3c-0.3-0.3-0.7-0.5-1-0.7c-0.1-0.1-0.1-0.5,0-1.3
		c0.1,0.3-0.1,0.4-0.6,0.4c-0.3,0-0.5-0.6-0.7-1.7c-0.2-1.1-0.4-1.7-0.6-1.7l-1,0.4c0-1.2-0.7-2.9-2.1-5.2c-1.7-2.9-2.6-4.5-2.7-4.7
		c-0.2,0.1-0.4-0.3-0.8-1c0.2-0.2,0.3-0.3,0.3-0.5c-0.1-0.3-0.4-0.4-0.9-0.4v1l-0.1-1.7c-0.3,0-0.6,0.1-0.7,0.2
		c-0.1,0.1-0.2,0.2-0.3,0.2c0-1.1-0.2-2.3-0.5-3.4c-0.2,0.3-0.3,0.5-0.3,0.6c-0.9-1.1-3-3.8-6.5-8.1c-0.1-0.6-0.3-1.5-0.6-2.7
		c-0.2,0.2-0.3,0.5-0.3,1c-1.4-2.8-3.2-5.1-5.6-6.9l0.4-0.3c-3.4-2.8-5.4-5-6-6.6c-0.5,0-0.6,0.2-0.4,0.5c-0.2-0.8-2.2-3.2-6-7.3
		c-0.2-0.4-0.1-0.8,0.1-1.2c-0.3,0.1-0.9,0-1.6-0.3c-0.7-0.9-1.6-2-2.9-3.4c-0.1-0.3-0.1-0.8-0.1-1.5c0-0.6-0.4-1.2-1.3-1.8
		c-0.2-0.7-0.4-1.6-0.8-2.9c0.3-0.1,0.6,0,0.8,0.3l0.9-0.9c-0.2-0.3-0.4-0.7-0.6-1.3c0.5-0.7,1.7-1.2,3.6-1.6c1.9-0.4,3.3-1,4.4-1.9
		c-0.1,0.7-0.7,1.4-1.7,2.2l0.4,1.2c1.1-0.3,2.5-0.8,4-1.6l-0.1-1.2l-0.6,0.6h-1.6c0-0.1,0.1-0.3,0.2-0.8c0.1-0.4,0.2-0.7,0.2-0.8
		h1.2l0.6,0.6c0.3-0.3,0.2-0.6-0.1-0.9c0.1,0,0.3-0.1,0.6-0.2c0.3-0.1,0.5-0.2,0.7-0.2c0,0.1-0.1,0.3-0.2,0.6
		c-0.1,0.3-0.2,0.6-0.2,0.6c0.3,0.2,0.8,0.5,1.6,0.9c0.3-1,0.1-1.7-0.8-2.2c1-0.2,2.6-0.5,4.7-1c-0.7,0.5-1.8,1.2-3.4,2
		c0.6,0.4,1.4,0.6,2.5,0.6c-0.2,0,0.4-0.3,1.8-1c0,0.3,0.1,0.8,0.3,1.7c0.9-0.5,2.3-1.3,4.2-2.3c-0.2,0.5-0.1,1.1,0.3,1.7
		c0.8-0.4,1.8-0.7,3.1-0.8c1.7-0.2,2.6-0.3,2.7-0.3c3.4-0.9,5.5-1.3,6.4-1.3c0.3,0,0.5,0.1,0.7,0.4c0.2,0.3,0.4,0.4,0.6,0.4
		c0-0.3,0-0.5-0.1-0.6c-0.1-0.2-0.1-0.3-0.1-0.4c0.5,0,0.9,0.3,1.2,0.9c0.2-0.2,0.4-0.6,0.6-1.2c2.3-0.3,3.1-0.5,2.6-0.5
		c0.7,0,1.4,0.3,2.1,1c0.5-0.5,0.5-0.8-0.1-0.8c1.1-0.6,1.9-0.9,2.5-0.9c2.3,0,3.8-0.3,4.6-0.8c-0.2-0.2-0.6-0.3-1.3-0.3
		c0.6-0.9,1.2-1.7,1.8-2.5c0.6-0.8,0.9-1.7,0.9-2.7v-2.9c0.1-0.1,0.2-0.3,0.4-0.5c-0.2-1.9-0.1-4.7,0.3-8.3c0-0.3,0.2-0.8,0.5-1.6
		c0.3-0.8,0.5-1.4,0.5-1.8c0-2.8-0.2-4.9-0.6-6.5c0.3-0.4,0.9-1.1,1.8-1.9c-0.1-1-0.4-2.6-0.9-4.8c0.7,0,1-0.4,1-1.3h1.2
		c0.3,0,0.5,0.2,0.8,0.7c0.3,0.5,0.5,0.8,0.6,0.8c1.2,1,2.2,1.4,3,1.4c0.3,0,0.5-0.1,0.5-0.2c0-0.1,0.1-0.2,0.4-0.2
		c0.2,0,0.6,0.3,1.2,1c0.7,0.7,1.2,1,1.8,1c0.3,0,0.4-0.1,0.4-0.2c0-0.1,0.2-0.2,0.5-0.2c0.3,0,0.6,0.5,1.1,1.5
		c0.5,1,0.9,1.5,1.2,1.5c0.3,0,0.4-0.2,0.4-0.7c0.3,0.8,0.7,1.8,1.4,3c0.1,0,0.2-0.1,0.3-0.4c0-0.3-0.1-0.6-0.4-1.2
		c0.7,0.3,1.3,0.9,1.8,1.9c0.5,1,0.8,1.6,0.8,1.9c0,0.3-0.1,0.5-0.4,0.6c-0.3,0-0.4,0.1-0.5,0.2c0,0.3,0.1,1.1,0.3,2.1
		c0.2,1.1,0.3,2,0.3,2.7c0,1.6-0.5,3.1-1.6,4.3c0.2,0.9-0.2,2.8-1,5.7c0,0.9,0.6,1.5,1.9,1.8c0.8,0.1,1.6,0.2,2.5,0.4
		c-1,0.4-2.2,1.3-3.8,2.5c1.6,1.2,3.4,1.8,5.6,1.8c0.8,0.7,0.9,1.2,0.4,1.4c-0.2,0.1-0.3,0.4-0.3,0.9l0.5,0.6
		c0.3-0.7,0.7-1.6,1.3-2.9c1.6-0.3,2.5-0.5,2.7-0.5c0.4,0,1.2,0.6,2.3,2c0.4-0.3,0.5-0.6,0.3-0.9c0.3,0.2,0.8,0.2,1.6,0
		c1-0.3,1.5-0.4,1.7-0.4l0.7,0.7c1.2-0.4,3.4-0.3,6.6,0.4c0.2-0.2,0.3-0.6,0.3-1.3c0.4,0,0.9,0.3,1.4,0.9c0.5,0,0.9-0.3,1-0.9
		c0.3,0.2,0.4,0.5,0.4,1c0.2,0.2,0.5,0.3,0.9,0.3c0.5,0,1.3-0.2,2.5-0.6l0.3-0.4c1.3,0.9,2.4,1.3,3.2,1.3c0.3,0,0.6-0.2,1.1-0.5
		c0.5-0.3,0.8-0.5,1.1-0.5c1.4,0,2.6,0.3,3.5,0.9c0.1-0.3,0.4-0.6,0.9-1.2c-0.2-0.2-0.5-0.3-0.9-0.3c1.1,0,1.8,0,2.1,0.1
		c0.2,0.2,0.1,0.6-0.1,1.2c0.2,0.4,0.7,0.8,1.4,1.2c0.1,0,0.4-0.5,0.9-1.4c-0.3-0.2-0.8-0.4-1.3-0.8c1.4,0.3,2.8,0.6,4.2,0.6
		c0.1,0.4,0.4,1.1,0.9,1.9c0.6-0.6,0.9-0.8,0.9-0.5c0,0.5,0.3,0.8,0.8,0.8h1.4c0.2-0.2,0.3-0.6,0.3-1.3c2.1,1.6,3.8,2.3,5.1,2.3
		c0.3,0,0.5-0.1,0.6-0.3c0.3,0.4,0.5,0.7,0.5,0.9c-0.8,0-1.2,0-1.3,0.1c0.7,0.4,1.3,0.6,1.7,0.6v-1.7l1.2,0.9c1.4-0.4,2-0.6,2-0.6
		C358.4,249,359.3,249.6,360.4,250.7z M229.8,260.2c-0.2,0.1-0.3,0.3-0.5,0.5c-0.1,0.3-0.1,0.5,0,0.7c-0.3,0-0.5-0.4-0.5-1.2H229.8z
		 M279.4,308.7c0-0.9-0.3-2.6-0.8-5.1c-0.5-2.5-0.7-4.9-0.5-7c0.1-0.7,0-1.9-0.1-3.6c-0.2-1.7-0.3-2.6-0.3-2.7
		c0-0.2,0.2-0.8,0.5-1.9c0.3-1.1,0.4-1.9,0.3-2.4c-0.4-0.7-0.7-1-0.9-1c-0.3-0.4-0.5-0.7-0.5-0.9c0,0.1,0.1-1.1,0.3-3.6
		c0.2-2.5,0.3-4.3,0.2-5.5c-0.3-0.3-0.5-0.9-0.8-1.7c-0.3-0.4-0.3-1.1,0-2.1c0.3-1.1,0.4-1.9,0.4-2.2c0-0.5-0.2-1.3-0.5-2.3
		c-0.3-1-0.5-1.6-0.5-1.8c0-1.2,0.5-2.7,1.4-4.5v-2.5c-0.3,0-0.8,0.2-1.3,0.5c-0.7-0.1-1.6-0.1-2.7-0.1c0,0.1,0,0.3,0,0.5
		c0,0.3-0.2,0.4-0.5,0.4h-1.4c-0.1-0.2-0.1-0.4-0.1-0.8l0.6-0.8h-0.1c-0.1,0.1-0.3,0.1-0.6,0.1c-0.3,0-0.5-0.2-0.6-0.6
		c0-0.4-0.1-0.7-0.2-0.7c-0.3,0.5-1,1-2.1,1.6c-0.2,0.3-0.4,0.8-0.8,1.4c-0.2-0.2-0.2-0.8,0-2c-0.3,0-0.8,0.1-1.3,0.2
		s-0.8,0.2-0.9,0.2c0.1,1.6,0,2.6-0.3,3c-0.3-0.3-0.7-0.3-0.9,0c0.1-0.7,0.1-1.6,0-2.7c-0.6,0.6-1.6,1.4-3.1,2.5
		c-1.5,1-2.5,1.6-3.1,1.6c-0.3,0-0.4-0.1-0.3-0.2c0-0.1-0.1-0.2-0.3-0.2c-0.3,0-0.7,0.2-1.2,0.7c-0.6,0.4-0.9,0.6-1.1,0.6
		c-1.8,0.4-4.4,1.1-7.7,1.9c-0.5,0.3-0.8,0.6-0.8,1l31.9,45.1c0-0.2,0.1-0.6,0.4-1.2C279.3,309.4,279.4,309,279.4,308.7z
		 M254.1,248.4c0,0.2-0.1,0.4-0.3,0.7c-0.2,0.3-0.3,0.5-0.3,0.6c-0.3-0.4-0.5-0.7-0.5-0.9c0.1,0,0.3-0.1,0.6-0.2
		C253.8,248.4,254,248.4,254.1,248.4z M258.5,259.9c-0.3-0.3-0.7-0.4-1.3-0.4c0.1,0.9,0.3,1.4,0.7,1.6
		C258.3,260.9,258.5,260.5,258.5,259.9z M261.9,245.1c-0.1,0.1-0.3,0.3-0.8,0.6c-0.4,0.3-0.8,0.5-1.2,0.5c-0.3,0-0.8-0.1-1.3-0.2
		c-0.5-0.1-0.9-0.2-1-0.2C259.1,245.4,260.5,245.1,261.9,245.1z M267,244.9c-0.5,0-0.9,0.2-1.2,0.5c-0.3-0.4-0.4-0.8-0.4-1
		L267,244.9z M275.9,242.7c0.2,0,0.3,0.2,0.3,0.5c-0.1,0.3-0.3,0.5-0.6,0.5c-0.3,0-0.4,0-0.4-0.1c0-0.2-0.2-0.3-0.5-0.3
		c-0.3,0-0.7,0.2-1.2,0.5c-0.6,0.3-1,0.5-1.2,0.5s-0.4,0-0.4-0.1c0-0.2-0.1-0.3-0.4-0.3c-0.3,0-0.5,0.2-0.5,0.5
		c0-0.3-0.3-0.5-0.9-0.5c-0.8,0-1.6,0.1-2.6,0.4c1-0.3,2.7-0.9,5.1-1.6C273,242.6,274.2,242.6,275.9,242.7z M271.6,252.7l-0.4,0.4
		l0.5,0.4l0.3-0.3L271.6,252.7z M275.9,256.3c-0.4,0-1,0-1.6-0.1c-0.7,0-1.1,0-1.3,0c0,0.6,0.4,0.9,1.3,0.9c0.3,0,0.7-0.1,1-0.4
		C275.7,256.4,275.8,256.3,275.9,256.3z M274.5,248.6v-0.9h-0.6v0.9H274.5z M278.7,242.8h-1.6v-0.6h1.6V242.8z M278.1,247.2
		l-0.5-0.3l-0.4,0.9l0.5,0.3L278.1,247.2z M281,336.8l-0.8-1.2l0.5-0.3l0.8,1.2L281,336.8z M288.4,271.1c0-0.1-0.1-0.3-0.2-0.6
		c-0.1-0.3-0.2-0.5-0.2-0.6c-0.1,0-0.2,0.2-0.5,0.7c-0.2,0.5-0.4,0.8-0.5,0.8C287.8,271.5,288.2,271.4,288.4,271.1z M287.9,278.5
		v-2.6h-0.5v2.6H287.9z M287.9,299.2c0.2,0,0.2-0.2,0-0.5c-0.2-0.4-0.3-0.7-0.3-0.8v2.1C287.6,299.6,287.7,299.4,287.9,299.2z
		 M289.3,308.6h-0.7l-0.4,3h0.6L289.3,308.6z M289.2,293.9l-0.4-0.1l-0.4,0.8l0.4,0.3L289.2,293.9z M290,323.8l-0.5-0.1l-0.4,0.8
		l0.4,0.3L290,323.8z M290,279.2v-1.6h-0.6v1.6H290z M289.7,326.4l-0.4,1.2l0.5,0.1l0.4-1.3H289.7z M292.3,348.3l-0.1,0.5l0.9,0.4
		l0.1-0.4L292.3,348.3z M300.6,247.6v-1.2h-0.5v1.2H300.6z M311,241.2c-0.9,0.1-2,0.1-3.5,0c-1.9-0.2-2.8-0.3-2.6-0.3
		c-0.3,0-0.4,0.2-0.4,0.6l-0.8-0.6c-0.6,0.3-1.3,0.3-2.2-0.1c1.6-0.6,3.9-0.9,6.9-0.9C308.5,239.9,309.4,240.4,311,241.2z
		 M309.6,252.7c0-1-0.3-1.7-0.8-2.2c-0.3,0.5-0.4,1.3-0.4,2.5C308.4,252.8,308.8,252.7,309.6,252.7z M310.3,247.6
		c-0.5-0.5-0.8-0.9-0.8-1.2c-0.3,0.3-0.4,1.1-0.4,2.2C309.2,248.6,309.6,248.3,310.3,247.6z M314.9,241.5h-2.9v-0.6h2.9V241.5z
		 M315.7,248.2c0-0.6-0.4-0.9-1.2-0.9c-1,0-1.6,0.2-1.8,0.5C313.7,249,314.7,249.1,315.7,248.2z M318.6,247.3
		c-0.5,0.2-1.1,0.5-1.8,0.9h2.6L318.6,247.3z M319.6,241.5h-2.2v-0.6h2.2V241.5z M319,250.7c-0.7,0.8-1.2,1.3-1.6,1.6
		c0.3,0.3,0.4,0.6,0.4,0.8c0.5-0.3,0.9-0.6,1.2-0.8V250.7z M324.8,248.1c-1,0.2-2.3,0-4-0.6c0.5,0.6,1.2,1,2.1,1.3
		C323.8,248.8,324.5,248.5,324.8,248.1z M322.7,241.5h-1.3v-0.6h1.3V241.5z M323.1,250.7l-0.3-0.4l-1.2,0.8l0.3,0.4L323.1,250.7z
		 M327,245.1h-1.6v-0.5h1.6V245.1z M326.8,241.7h-0.9v-0.5h0.9V241.7z M328.6,247.5h-0.5l-0.4,1l0.5,0.3L328.6,247.5z M330.4,242.1
		h-1.6v-0.6h1.6V242.1z M331.2,244l-0.3,0.5l-0.8-0.4l0.1-0.5L331.2,244z M336.5,249.3c-0.9-1-1.3-1.7-1.4-2.2c-0.3,0.5-0.6,1-1,1.3
		c-0.2-0.1-0.3-0.2-0.4-0.5c-0.1-0.2-0.2-0.4-0.4-0.6c0,0.5,0,1.2,0,1.9H336.5z M342.6,243.8c-0.7,0-1.2-0.2-1.6-0.5l-0.8,0.6
		c0.4-0.4,0.4-0.6,0-0.6c-1.1,0-2.2-0.3-3.1-0.9C338.6,242.7,340.4,243.1,342.6,243.8z M340.4,252.9c-0.1,0-0.3,0.1-0.6,0.4
		c-0.3,0.3-0.5,0.4-0.6,0.4c0-0.9,0.2-1.3,0.5-1.3C339.9,252.8,340.2,252.9,340.4,252.9z M340.5,248.9c0-0.2-0.1-0.4-0.4-0.8
		c-0.3,0-0.5,0.5-0.5,1.6L340.5,248.9z M343.9,247.2l-0.5-0.5c-0.8,0-1.3,0.2-1.4,0.5H343.9z M349.9,249.8c-0.5,0-1,0.3-1.6,0.8
		l0.8,0.8C349.6,250.8,349.9,250.3,349.9,249.8z M349.6,246.4l-0.8-0.8l0.4-0.4l0.8,0.9L349.6,246.4z M356.3,250.8v-0.5h-0.9v0.5
		H356.3z M360.8,255.8l-1.2-0.6l0.3-0.5l1.2,0.6L360.8,255.8z M361.1,254.2l-0.3,0.3l-0.9-0.8l0.4-0.4L361.1,254.2z M364.3,253.8
		c-0.2,0.3-0.3,0.6-0.3,0.9l-2.3-0.4c0.8-0.8,1.2-1.2,1.3-1.2c0,0.3-0.1,0.5-0.3,0.8c0.2,0,0.4,0.2,0.8,0.5L364.3,253.8z"/>
</g>
</svg>
